<?xml version="1.0" encoding="UTF-8" standalone="no"?>
<!DOCTYPE svg PUBLIC "-//W3C//DTD SVG 1.1//EN" "http://www.w3.org/Graphics/SVG/1.1/DTD/svg11.dtd">
<svg width="218pt" height="74pt" viewBox="0 0 218 74" version="1.1" xmlns="http://www.w3.org/2000/svg" xmlns:xlink="http://www.w3.org/1999/xlink" xml:space="preserve" xmlns:serif="http://www.serif.com/" style="fill-rule:evenodd;clip-rule:evenodd;stroke-linecap:round;stroke-linejoin:round;stroke-miterlimit:10;">
    <g transform="matrix(0,-0.06,-0.06,0,548.91,514.11)">
        <path d="M7356.5,9061.5L8556.5,9061.5L8556.5,9136.5L7356.5,9136.5L7356.5,9061.5" style="fill:none;fill-rule:nonzero;stroke:black;stroke-width:24px;"/>
    </g>
    <g transform="matrix(0,0.06,0.06,0,-331.41,-652.23)">
        <path d="M10882.5,9061.5L12082.5,9061.5L12082.5,9136.5L10882.5,9136.5L10882.5,9061.5" style="fill:none;fill-rule:nonzero;stroke:black;stroke-width:24px;"/>
    </g>
    <g transform="matrix(0.06,0,0,0.06,-474.42,-572.22)">
        <path d="M7994,9624L8088,9624" style="fill:none;fill-rule:nonzero;stroke:black;stroke-width:12px;"/>
    </g>
    <g transform="matrix(0.06,0,0,0.06,-474.42,-572.22)">
        <path d="M8144,9624L8257,9624" style="fill:none;fill-rule:nonzero;stroke:black;stroke-width:12px;"/>
    </g>
    <g transform="matrix(0.06,0,0,0.06,-474.42,-572.22)">
        <path d="M8313,9624L8425,9624" style="fill:none;fill-rule:nonzero;stroke:black;stroke-width:12px;"/>
    </g>
    <g transform="matrix(0.06,0,0,0.06,-474.42,-572.22)">
        <path d="M8482,9624L8594,9624" style="fill:none;fill-rule:nonzero;stroke:black;stroke-width:12px;"/>
    </g>
    <g transform="matrix(0.06,0,0,0.06,-474.42,-572.22)">
        <path d="M8650,9624L8763,9624" style="fill:none;fill-rule:nonzero;stroke:black;stroke-width:12px;"/>
    </g>
    <g transform="matrix(0.06,0,0,0.06,-474.42,-572.22)">
        <path d="M8819,9624L8932,9624" style="fill:none;fill-rule:nonzero;stroke:black;stroke-width:12px;"/>
    </g>
    <g transform="matrix(0.06,0,0,0.06,-474.42,-572.22)">
        <path d="M8988,9624L9101,9624" style="fill:none;fill-rule:nonzero;stroke:black;stroke-width:12px;"/>
    </g>
    <g transform="matrix(0.06,0,0,0.06,-474.42,-572.22)">
        <path d="M9157,9624L9269,9624" style="fill:none;fill-rule:nonzero;stroke:black;stroke-width:12px;"/>
    </g>
    <g transform="matrix(0.06,0,0,0.06,-474.42,-572.22)">
        <path d="M9326,9624L9438,9624" style="fill:none;fill-rule:nonzero;stroke:black;stroke-width:12px;"/>
    </g>
    <g transform="matrix(0.06,0,0,0.06,-474.42,-572.22)">
        <path d="M9494,9624L9607,9624" style="fill:none;fill-rule:nonzero;stroke:black;stroke-width:12px;"/>
    </g>
    <g transform="matrix(0.06,0,0,0.06,-474.42,-572.22)">
        <path d="M9663,9624L9776,9624" style="fill:none;fill-rule:nonzero;stroke:black;stroke-width:12px;"/>
    </g>
    <g transform="matrix(0.06,0,0,0.06,-474.42,-572.22)">
        <path d="M9832,9624L9945,9624" style="fill:none;fill-rule:nonzero;stroke:black;stroke-width:12px;"/>
    </g>
    <g transform="matrix(0.06,0,0,0.06,-474.42,-572.22)">
        <path d="M10001,9624L10113,9624" style="fill:none;fill-rule:nonzero;stroke:black;stroke-width:12px;"/>
    </g>
    <g transform="matrix(0.06,0,0,0.06,-474.42,-572.22)">
        <path d="M10170,9624L10282,9624" style="fill:none;fill-rule:nonzero;stroke:black;stroke-width:12px;"/>
    </g>
    <g transform="matrix(0.06,0,0,0.06,-474.42,-572.22)">
        <path d="M10338,9624L10451,9624" style="fill:none;fill-rule:nonzero;stroke:black;stroke-width:12px;"/>
    </g>
    <g transform="matrix(0.06,0,0,0.06,-474.42,-572.22)">
        <path d="M10507,9624L10620,9624" style="fill:none;fill-rule:nonzero;stroke:black;stroke-width:12px;"/>
    </g>
    <g transform="matrix(0.06,0,0,0.06,-474.42,-572.22)">
        <path d="M10676,9624L10789,9624" style="fill:none;fill-rule:nonzero;stroke:black;stroke-width:12px;"/>
    </g>
    <g transform="matrix(0.06,0,0,0.06,-474.42,-572.22)">
        <path d="M10845,9624L10957,9624" style="fill:none;fill-rule:nonzero;stroke:black;stroke-width:12px;"/>
    </g>
    <g transform="matrix(0.06,0,0,0.06,-474.42,-572.22)">
        <path d="M11014,9624L11126,9624" style="fill:none;fill-rule:nonzero;stroke:black;stroke-width:12px;"/>
    </g>
    <g transform="matrix(0.06,0,0,0.06,-474.42,-572.22)">
        <path d="M11182,9624L11295,9624" style="fill:none;fill-rule:nonzero;stroke:black;stroke-width:12px;"/>
    </g>
    <g transform="matrix(0.06,0,0,0.06,-474.42,-572.22)">
        <path d="M11351,9624L11445,9624" style="fill:none;fill-rule:nonzero;stroke:black;stroke-width:12px;"/>
    </g>
    <g transform="matrix(-0.06,0,0,0.06,691.92,-440.22)">
        <path d="M7994,8524L11445,8524" style="fill:none;fill-rule:nonzero;stroke:black;stroke-width:24px;"/>
    </g>
    <g transform="matrix(0.06,0,0,0.06,-474.42,-581.22)">
        <path d="M7994,9699L11445,9699" style="fill:none;fill-rule:nonzero;stroke:black;stroke-width:24px;"/>
    </g>
</svg>
