<?xml version="1.0" encoding="UTF-8" standalone="no"?>
<!DOCTYPE svg PUBLIC "-//W3C//DTD SVG 1.1//EN" "http://www.w3.org/Graphics/SVG/1.1/DTD/svg11.dtd">
<svg width="119pt" height="138pt" viewBox="0 0 119 138" version="1.1" xmlns="http://www.w3.org/2000/svg" xmlns:xlink="http://www.w3.org/1999/xlink" xml:space="preserve" xmlns:serif="http://www.serif.com/" style="fill-rule:evenodd;clip-rule:evenodd;stroke-linecap:round;stroke-linejoin:round;stroke-miterlimit:10;">
    <g transform="matrix(0.06,0,0,0.06,-538.98,-400.98)">
        <path d="M8995,8379L8995,8660" style="fill:none;fill-rule:nonzero;stroke:black;stroke-width:24px;"/>
    </g>
    <g transform="matrix(0.06,0,0,0.06,-538.98,-400.98)">
        <path d="M10946,8379L10946,8660" style="fill:none;fill-rule:nonzero;stroke:black;stroke-width:24px;"/>
    </g>
    <g transform="matrix(0.06,0,0,0.06,-538.98,-534.18)">
        <path d="M8995,9483L8995,9776" style="fill:none;fill-rule:nonzero;stroke:black;stroke-width:24px;"/>
    </g>
    <g transform="matrix(0.06,0,0,0.06,-538.98,-534.18)">
        <path d="M10946,9483L10946,9776" style="fill:none;fill-rule:nonzero;stroke:black;stroke-width:24px;"/>
    </g>
    <g transform="matrix(0.06,0,0,0.06,-538.98,-569.88)">
        <path d="M10821,9510L10821,10344" style="fill:none;fill-rule:nonzero;stroke:black;stroke-width:24px;"/>
    </g>
    <g transform="matrix(0,0.06,0.06,0,-374.28,-512.46)">
        <path d="M10820,8076L10822,8076" style="fill:none;fill-rule:nonzero;stroke:black;stroke-width:24px;"/>
    </g>
    <g transform="matrix(0,-0.06,-0.06,0,492.78,684)">
        <path d="M9119,8076L9121,8076" style="fill:none;fill-rule:nonzero;stroke:black;stroke-width:24px;"/>
    </g>
    <g transform="matrix(0.06,0,0,0.06,-538.98,-363.18)">
        <path d="M9120,8302L8995,8302L8995,8107L9120,8107" style="fill:none;fill-rule:nonzero;stroke:black;stroke-width:24px;"/>
    </g>
    <g transform="matrix(0.06,0,0,0.06,-538.98,-363.18)">
        <path d="M10821,8302L10946,8302L10946,8107L10821,8107" style="fill:none;fill-rule:nonzero;stroke:black;stroke-width:24px;"/>
    </g>
    <g transform="matrix(0.06,0,0,0.06,-538.98,-349.56)">
        <path d="M8995,8075L8995,8107L9120,8107" style="fill:none;fill-rule:nonzero;stroke:black;stroke-width:24px;"/>
    </g>
    <g transform="matrix(0.06,0,0,0.06,-538.98,-349.56)">
        <path d="M10821,8107L10946,8107L10946,8075" style="fill:none;fill-rule:nonzero;stroke:black;stroke-width:24px;"/>
    </g>
    <g transform="matrix(0.06,0,0,0.06,-538.98,-615.12)">
        <path d="M8995,10304L9120,10304" style="fill:none;fill-rule:nonzero;stroke:black;stroke-width:24px;"/>
    </g>
    <g transform="matrix(0.06,0,0,0.06,-538.98,-615.12)">
        <path d="M10821,10304L10946,10304" style="fill:none;fill-rule:nonzero;stroke:black;stroke-width:24px;"/>
    </g>
    <g transform="matrix(0.06,0,0,0.06,-538.98,-582.54)">
        <path d="M10821,9776L10946,9776L10946,10289" style="fill:none;fill-rule:nonzero;stroke:black;stroke-width:24px;"/>
    </g>
    <g transform="matrix(0.06,0,0,0.06,-538.98,-582.54)">
        <path d="M8995,10289L8995,9776L9120,9776" style="fill:none;fill-rule:nonzero;stroke:black;stroke-width:24px;"/>
    </g>
    <g transform="matrix(0,0.06,0.06,0,-617.07,-536.13)">
        <path d="M8987.5,10296.5L9002.5,10296.5" style="fill:none;fill-rule:nonzero;stroke:black;stroke-width:24px;"/>
    </g>
    <g transform="matrix(0,0.06,0.06,0,-500.01,-653.19)">
        <path d="M10938.5,10296.5L10953.5,10296.5" style="fill:none;fill-rule:nonzero;stroke:black;stroke-width:24px;"/>
    </g>
    <g transform="matrix(0.06,0,0,0.06,-538.98,-562.86)">
        <path d="M9120,9877L9241,9872L9362,9869L9484,9866L9605,9863L9727,9861L9849,9860L10092,9860L10214,9861L10336,9863L10457,9866L10579,9869L10700,9872L10821,9877" style="fill:none;fill-rule:nonzero;stroke:black;stroke-width:24px;"/>
    </g>
    <g transform="matrix(-0.0599688,0.00193448,0.00193448,0.0599688,542.955,-613.066)">
        <path d="M9121.5,10189L9245.56,10189L9242.5,10094L9118.44,10094L9121.5,10189" style="fill:none;fill-rule:nonzero;stroke:black;stroke-width:24px;"/>
    </g>
    <g transform="matrix(-0.058406,-0.0137383,-0.0137383,0.058406,56.3311,16.9344)">
        <path d="M-728.518,-292.581C-680.693,-294.511 -630.089,-294.511 -577.211,-292.581" style="fill:none;fill-rule:nonzero;stroke:black;stroke-width:24px;"/>
    </g>
    <g transform="matrix(-0.06,0,0,-0.06,59.31,-15.0261)">
        <path d="M-579.221,-380.032C-223.278,-309.904 223.278,-309.904 579.221,-380.032" style="fill:none;fill-rule:nonzero;stroke:black;stroke-width:24px;"/>
    </g>
    <g transform="matrix(-0.058406,0.0137383,0.0137383,0.058406,62.2889,16.9344)">
        <path d="M577.211,-292.581C630.089,-294.511 680.693,-294.511 728.518,-292.581" style="fill:none;fill-rule:nonzero;stroke:black;stroke-width:24px;"/>
    </g>
    <g transform="matrix(-0.06,0,0,-0.06,59.31,-7.94034)">
        <path d="M-726.508,-391.58C-308.424,-275.259 308.424,-275.259 726.508,-391.58" style="fill:none;fill-rule:nonzero;stroke:black;stroke-width:24px;"/>
    </g>
    <g transform="matrix(0.06,0,0,0.06,-538.98,-595.62)">
        <path d="M10821,10096L10697,10092L10697,10187L10821,10191" style="fill:none;fill-rule:nonzero;stroke:black;stroke-width:24px;"/>
    </g>
    <g transform="matrix(0,0.06,0.06,0,-590.34,-524.4)">
        <path d="M9004,9976L9236,9976" style="fill:none;fill-rule:nonzero;stroke:black;stroke-width:24px;"/>
    </g>
    <g transform="matrix(0.06,0,0,0.06,-538.98,-603.42)">
        <path d="M9120,10226L9120,10187L9391,10187" style="fill:none;fill-rule:nonzero;stroke:black;stroke-width:24px;"/>
    </g>
    <g transform="matrix(0.06,0,0,0.06,-538.98,-605.76)">
        <path d="M10550,10226L10821,10226" style="fill:none;fill-rule:nonzero;stroke:black;stroke-width:24px;"/>
    </g>
    <g transform="matrix(0.06,0,0,0.06,-538.98,-540.84)">
        <path d="M9120,9860L9120,9510" style="fill:none;fill-rule:nonzero;stroke:black;stroke-width:24px;"/>
    </g>
    <g transform="matrix(0.06,0,0,0.06,-538.98,-612.84)">
        <path d="M10821,10226L9120,10226L9120,10344" style="fill:none;fill-rule:nonzero;stroke:black;stroke-width:24px;"/>
    </g>
    <g transform="matrix(0,0.06,0.06,0,-426.51,-579.69)">
        <path d="M10534.5,9071.5L11357.5,9071.5" style="fill:none;fill-rule:nonzero;stroke:black;stroke-width:24px;"/>
    </g>
    <g transform="matrix(0,0.06,0.06,0,-382.65,-535.83)">
        <path d="M10907.5,8340.5L10984.5,8340.5" style="fill:none;fill-rule:nonzero;stroke:black;stroke-width:24px;"/>
    </g>
    <g transform="matrix(0,-0.06,-0.06,0,501.15,660.63)">
        <path d="M8956.5,8340.5L9033.5,8340.5" style="fill:none;fill-rule:nonzero;stroke:black;stroke-width:24px;"/>
    </g>
    <g transform="matrix(0,-0.06,-0.06,0,545.01,616.77)">
        <path d="M8583.5,9071.5L9406.5,9071.5" style="fill:none;fill-rule:nonzero;stroke:black;stroke-width:24px;"/>
    </g>
    <g transform="matrix(-0.0559567,-0.0216529,-0.0216529,0.0559567,32.2861,107.152)">
        <path d="M-873.376,-1346.82C-647.129,-1400.16 -411.221,-1400.16 -184.441,-1346.82" style="fill:none;fill-rule:nonzero;stroke:black;stroke-width:24px;"/>
    </g>
    <g transform="matrix(-0.0559567,0.0216529,0.0216529,0.0559567,86.3339,107.152)">
        <path d="M184.441,-1346.82C411.221,-1400.16 647.129,-1400.16 873.376,-1346.82" style="fill:none;fill-rule:nonzero;stroke:black;stroke-width:24px;"/>
    </g>
    <g transform="matrix(0,0.06,0.06,0,-529.14,-463.2)">
        <path d="M8566,8956L9674,8956" style="fill:none;fill-rule:nonzero;stroke:black;stroke-width:24px;"/>
    </g>
    <g transform="matrix(0,0.06,0.06,0,-427.08,-565.26)">
        <path d="M10267,8956L11375,8956" style="fill:none;fill-rule:nonzero;stroke:black;stroke-width:24px;"/>
    </g>
    <g transform="matrix(0.06,0,0,0.06,-538.98,-367.38)">
        <path d="M9120,8077L9120,8402" style="fill:none;fill-rule:nonzero;stroke:black;stroke-width:24px;"/>
    </g>
    <g transform="matrix(0.06,0,0,0.06,-538.98,-368.52)">
        <path d="M10821,8096L10821,8402" style="fill:none;fill-rule:nonzero;stroke:black;stroke-width:24px;"/>
    </g>
    <g transform="matrix(0.06,0,0,0.06,-538.98,-349.02)">
        <path d="M9120,8096L10821,8096L10821,8077" style="fill:none;fill-rule:nonzero;stroke:black;stroke-width:24px;"/>
    </g>
    <g transform="matrix(0.06,0,0,0.06,-538.98,-549.72)">
        <path d="M9763,9759L10178,9759" style="fill:none;fill-rule:nonzero;stroke:black;stroke-width:12px;"/>
    </g>
</svg>
