<?xml version="1.0" encoding="UTF-8" standalone="no"?>
<!DOCTYPE svg PUBLIC "-//W3C//DTD SVG 1.1//EN" "http://www.w3.org/Graphics/SVG/1.1/DTD/svg11.dtd">
<svg width="254pt" height="146pt" viewBox="0 0 254 146" version="1.1" xmlns="http://www.w3.org/2000/svg" xmlns:xlink="http://www.w3.org/1999/xlink" xml:space="preserve" xmlns:serif="http://www.serif.com/" style="fill-rule:evenodd;clip-rule:evenodd;stroke-linecap:round;stroke-linejoin:round;stroke-miterlimit:10;">
    <g transform="matrix(0,-0.06,-0.06,0,448.56,633.24)">
        <path d="M8141,7389L8191,7389" style="fill:none;fill-rule:nonzero;stroke:black;stroke-width:12px;"/>
    </g>
    <g transform="matrix(0,-0.06,-0.06,0,548.88,733.56)">
        <path d="M9813,7389L9863,7389" style="fill:none;fill-rule:nonzero;stroke:black;stroke-width:12px;"/>
    </g>
    <g transform="matrix(0,-0.06,-0.06,0,549.06,733.74)">
        <path d="M9816,7389L9866,7389" style="fill:none;fill-rule:nonzero;stroke:black;stroke-width:12px;"/>
    </g>
    <g transform="matrix(0.06,0,0,0.06,-484.74,-300.06)">
        <path d="M8164,7414L8164,7364L8299,7364" style="fill:none;fill-rule:nonzero;stroke:black;stroke-width:12px;"/>
    </g>
    <g transform="matrix(0.06,0,0,0.06,-484.74,-303.06)">
        <path d="M8355,7414L8468,7414" style="fill:none;fill-rule:nonzero;stroke:black;stroke-width:12px;"/>
    </g>
    <g transform="matrix(0.06,0,0,0.06,-484.74,-303.06)">
        <path d="M8524,7414L8636,7414" style="fill:none;fill-rule:nonzero;stroke:black;stroke-width:12px;"/>
    </g>
    <g transform="matrix(0.06,0,0,0.06,-484.74,-303.06)">
        <path d="M8693,7414L8805,7414" style="fill:none;fill-rule:nonzero;stroke:black;stroke-width:12px;"/>
    </g>
    <g transform="matrix(0.06,0,0,0.06,-484.74,-303.06)">
        <path d="M8862,7414L8974,7414" style="fill:none;fill-rule:nonzero;stroke:black;stroke-width:12px;"/>
    </g>
    <g transform="matrix(0.06,0,0,0.06,-484.74,-303.06)">
        <path d="M9030,7414L9143,7414" style="fill:none;fill-rule:nonzero;stroke:black;stroke-width:12px;"/>
    </g>
    <g transform="matrix(0.06,0,0,0.06,-484.74,-303.06)">
        <path d="M9199,7414L9312,7414" style="fill:none;fill-rule:nonzero;stroke:black;stroke-width:12px;"/>
    </g>
    <g transform="matrix(0.06,0,0,0.06,-484.74,-303.06)">
        <path d="M9368,7414L9480,7414" style="fill:none;fill-rule:nonzero;stroke:black;stroke-width:12px;"/>
    </g>
    <g transform="matrix(0.06,0,0,0.06,-484.74,-303.06)">
        <path d="M9537,7414L9649,7414" style="fill:none;fill-rule:nonzero;stroke:black;stroke-width:12px;"/>
    </g>
    <g transform="matrix(0.06,0,0,0.06,-484.74,-303.06)">
        <path d="M9705,7414L9841,7414" style="fill:none;fill-rule:nonzero;stroke:black;stroke-width:12px;"/>
    </g>
    <g transform="matrix(0,0.06,0.06,0,-321.06,-463.74)">
        <path d="M10092,7389L10142,7389" style="fill:none;fill-rule:nonzero;stroke:black;stroke-width:12px;"/>
    </g>
    <g transform="matrix(0.06,0,0,0.06,-484.74,-303.06)">
        <path d="M9941,7414L10001,7414" style="fill:none;fill-rule:nonzero;stroke:black;stroke-width:12px;"/>
    </g>
    <g transform="matrix(0.06,0,0,0.06,-484.74,-303.06)">
        <path d="M10057,7414L10117,7414" style="fill:none;fill-rule:nonzero;stroke:black;stroke-width:12px;"/>
    </g>
    <g transform="matrix(0,-0.06,-0.06,0,553.74,738.42)">
        <path d="M9894,7389L9944,7389" style="fill:none;fill-rule:nonzero;stroke:black;stroke-width:12px;"/>
    </g>
    <g transform="matrix(0,-0.06,-0.06,0,679.62,864.3)">
        <path d="M11992,7389L12042,7389" style="fill:none;fill-rule:nonzero;stroke:black;stroke-width:12px;"/>
    </g>
    <g transform="matrix(0,-0.06,-0.06,0,691.44,876.12)">
        <path d="M12189,7389L12239,7389" style="fill:none;fill-rule:nonzero;stroke:black;stroke-width:12px;"/>
    </g>
    <g transform="matrix(0.06,0,0,0.06,-484.74,-303.06)">
        <path d="M12017,7414L12076,7414" style="fill:none;fill-rule:nonzero;stroke:black;stroke-width:12px;"/>
    </g>
    <g transform="matrix(0.06,0,0,0.06,-484.74,-303.06)">
        <path d="M12133,7414L12192,7414" style="fill:none;fill-rule:nonzero;stroke:black;stroke-width:12px;"/>
    </g>
    <g transform="matrix(0.06,0,0,0.06,-484.74,-303.06)">
        <path d="M9916,7414L9941,7414" style="fill:none;fill-rule:nonzero;stroke:black;stroke-width:12px;"/>
    </g>
    <g transform="matrix(0.06,0,0,0.06,-484.74,-303.06)">
        <path d="M12192,7414L12217,7414" style="fill:none;fill-rule:nonzero;stroke:black;stroke-width:12px;"/>
    </g>
    <g transform="matrix(0,-0.06,-0.06,0,559.11,732.69)">
        <path d="M9848.5,7481.5L9983.5,7481.5" style="fill:none;fill-rule:nonzero;stroke:black;stroke-width:12px;"/>
    </g>
    <g transform="matrix(0,-0.06,-0.06,0,569.88,721.92)">
        <path d="M9860,7661L9972,7661" style="fill:none;fill-rule:nonzero;stroke:black;stroke-width:12px;"/>
    </g>
    <g transform="matrix(0,-0.06,-0.06,0,580.02,711.78)">
        <path d="M9860,7830L9972,7830" style="fill:none;fill-rule:nonzero;stroke:black;stroke-width:12px;"/>
    </g>
    <g transform="matrix(0,-0.06,-0.06,0,590.13,701.67)">
        <path d="M9859.5,7998.5L9972.5,7998.5" style="fill:none;fill-rule:nonzero;stroke:black;stroke-width:12px;"/>
    </g>
    <g transform="matrix(0,-0.06,-0.06,0,600.27,691.53)">
        <path d="M9859.5,8167.5L9972.5,8167.5" style="fill:none;fill-rule:nonzero;stroke:black;stroke-width:12px;"/>
    </g>
    <g transform="matrix(0,-0.06,-0.06,0,610.41,681.39)">
        <path d="M9859.5,8336.5L9972.5,8336.5" style="fill:none;fill-rule:nonzero;stroke:black;stroke-width:12px;"/>
    </g>
    <g transform="matrix(0,-0.06,-0.06,0,620.52,671.28)">
        <path d="M9860,8505L9972,8505" style="fill:none;fill-rule:nonzero;stroke:black;stroke-width:12px;"/>
    </g>
    <g transform="matrix(0,-0.06,-0.06,0,630.66,661.14)">
        <path d="M9860,8674L9972,8674" style="fill:none;fill-rule:nonzero;stroke:black;stroke-width:12px;"/>
    </g>
    <g transform="matrix(0,-0.06,-0.06,0,640.77,651.03)">
        <path d="M9859.5,8842.5L9972.5,8842.5" style="fill:none;fill-rule:nonzero;stroke:black;stroke-width:12px;"/>
    </g>
    <g transform="matrix(0,-0.06,-0.06,0,650.91,640.89)">
        <path d="M9859.5,9011.5L9972.5,9011.5" style="fill:none;fill-rule:nonzero;stroke:black;stroke-width:12px;"/>
    </g>
    <g transform="matrix(0,-0.06,-0.06,0,661.05,630.75)">
        <path d="M9859.5,9180.5L9972.5,9180.5" style="fill:none;fill-rule:nonzero;stroke:black;stroke-width:12px;"/>
    </g>
    <g transform="matrix(0,-0.06,-0.06,0,671.16,620.64)">
        <path d="M9860,9349L9972,9349" style="fill:none;fill-rule:nonzero;stroke:black;stroke-width:12px;"/>
    </g>
    <g transform="matrix(0,-0.06,-0.06,0,681.3,610.5)">
        <path d="M9860,9518L9972,9518" style="fill:none;fill-rule:nonzero;stroke:black;stroke-width:12px;"/>
    </g>
    <g transform="matrix(0,-0.06,-0.06,0,692.07,599.73)">
        <path d="M9848.5,9697.5L9983.5,9697.5" style="fill:none;fill-rule:nonzero;stroke:black;stroke-width:12px;"/>
    </g>
    <g transform="matrix(0,-0.06,-0.06,0,697.17,870.75)">
        <path d="M12149.5,7481.5L12284.5,7481.5" style="fill:none;fill-rule:nonzero;stroke:black;stroke-width:12px;"/>
    </g>
    <g transform="matrix(0,-0.06,-0.06,0,707.94,859.98)">
        <path d="M12161,7661L12273,7661" style="fill:none;fill-rule:nonzero;stroke:black;stroke-width:12px;"/>
    </g>
    <g transform="matrix(0,-0.06,-0.06,0,718.08,849.84)">
        <path d="M12161,7830L12273,7830" style="fill:none;fill-rule:nonzero;stroke:black;stroke-width:12px;"/>
    </g>
    <g transform="matrix(0,-0.06,-0.06,0,728.19,839.73)">
        <path d="M12160.5,7998.5L12273.5,7998.5" style="fill:none;fill-rule:nonzero;stroke:black;stroke-width:12px;"/>
    </g>
    <g transform="matrix(0,-0.06,-0.06,0,738.33,829.59)">
        <path d="M12160.5,8167.5L12273.5,8167.5" style="fill:none;fill-rule:nonzero;stroke:black;stroke-width:12px;"/>
    </g>
    <g transform="matrix(0,-0.06,-0.06,0,748.47,819.45)">
        <path d="M12160.5,8336.5L12273.5,8336.5" style="fill:none;fill-rule:nonzero;stroke:black;stroke-width:12px;"/>
    </g>
    <g transform="matrix(0,-0.06,-0.06,0,758.58,809.34)">
        <path d="M12161,8505L12273,8505" style="fill:none;fill-rule:nonzero;stroke:black;stroke-width:12px;"/>
    </g>
    <g transform="matrix(0,-0.06,-0.06,0,768.72,799.2)">
        <path d="M12161,8674L12273,8674" style="fill:none;fill-rule:nonzero;stroke:black;stroke-width:12px;"/>
    </g>
    <g transform="matrix(0,-0.06,-0.06,0,778.83,789.09)">
        <path d="M12160.5,8842.5L12273.5,8842.5" style="fill:none;fill-rule:nonzero;stroke:black;stroke-width:12px;"/>
    </g>
    <g transform="matrix(0,-0.06,-0.06,0,788.97,778.95)">
        <path d="M12160.5,9011.5L12273.5,9011.5" style="fill:none;fill-rule:nonzero;stroke:black;stroke-width:12px;"/>
    </g>
    <g transform="matrix(0,-0.06,-0.06,0,799.11,768.81)">
        <path d="M12160.5,9180.5L12273.5,9180.5" style="fill:none;fill-rule:nonzero;stroke:black;stroke-width:12px;"/>
    </g>
    <g transform="matrix(0,-0.06,-0.06,0,809.22,758.7)">
        <path d="M12161,9349L12273,9349" style="fill:none;fill-rule:nonzero;stroke:black;stroke-width:12px;"/>
    </g>
    <g transform="matrix(0,-0.06,-0.06,0,819.36,748.56)">
        <path d="M12161,9518L12273,9518" style="fill:none;fill-rule:nonzero;stroke:black;stroke-width:12px;"/>
    </g>
    <g transform="matrix(0,-0.06,-0.06,0,830.13,737.79)">
        <path d="M12149.5,9697.5L12284.5,9697.5" style="fill:none;fill-rule:nonzero;stroke:black;stroke-width:12px;"/>
    </g>
    <g transform="matrix(0.06,0,0,0.06,-484.74,-297.06)">
        <path d="M8091,7364L12292,7364" style="fill:none;fill-rule:nonzero;stroke:black;stroke-width:24px;"/>
    </g>
    <g transform="matrix(0.06,0,0,0.06,-484.74,-303.06)">
        <path d="M12017,7414L11945,7414" style="fill:none;fill-rule:nonzero;stroke:black;stroke-width:12px;"/>
    </g>
    <g transform="matrix(0.06,0,0,0.06,-484.74,-303.06)">
        <path d="M11889,7414L11817,7414" style="fill:none;fill-rule:nonzero;stroke:black;stroke-width:12px;"/>
    </g>
    <g transform="matrix(0,0.06,0.06,0,-465.63,-587.19)">
        <path d="M9898.5,9622.5L9983.5,9622.5" style="fill:none;fill-rule:nonzero;stroke:black;stroke-width:12px;"/>
    </g>
    <g transform="matrix(0,0.06,0.06,0,-456.36,-577.92)">
        <path d="M9885,9468L9997,9468" style="fill:none;fill-rule:nonzero;stroke:black;stroke-width:12px;"/>
    </g>
    <g transform="matrix(0,0.06,0.06,0,-446.22,-567.78)">
        <path d="M9885,9299L9997,9299" style="fill:none;fill-rule:nonzero;stroke:black;stroke-width:12px;"/>
    </g>
    <g transform="matrix(0,0.06,0.06,0,-436.11,-557.67)">
        <path d="M9884.5,9130.5L9997.5,9130.5" style="fill:none;fill-rule:nonzero;stroke:black;stroke-width:12px;"/>
    </g>
    <g transform="matrix(0,0.06,0.06,0,-425.97,-547.53)">
        <path d="M9884.5,8961.5L9997.5,8961.5" style="fill:none;fill-rule:nonzero;stroke:black;stroke-width:12px;"/>
    </g>
    <g transform="matrix(0,0.06,0.06,0,-415.83,-537.39)">
        <path d="M9884.5,8792.5L9997.5,8792.5" style="fill:none;fill-rule:nonzero;stroke:black;stroke-width:12px;"/>
    </g>
    <g transform="matrix(0,0.06,0.06,0,-405.72,-527.28)">
        <path d="M9885,8624L9997,8624" style="fill:none;fill-rule:nonzero;stroke:black;stroke-width:12px;"/>
    </g>
    <g transform="matrix(0,0.06,0.06,0,-395.58,-517.14)">
        <path d="M9885,8455L9997,8455" style="fill:none;fill-rule:nonzero;stroke:black;stroke-width:12px;"/>
    </g>
    <g transform="matrix(0,0.06,0.06,0,-385.47,-507.03)">
        <path d="M9884.5,8286.5L9997.5,8286.5" style="fill:none;fill-rule:nonzero;stroke:black;stroke-width:12px;"/>
    </g>
    <g transform="matrix(0,0.06,0.06,0,-375.33,-496.89)">
        <path d="M9884.5,8117.5L9997.5,8117.5" style="fill:none;fill-rule:nonzero;stroke:black;stroke-width:12px;"/>
    </g>
    <g transform="matrix(0,0.06,0.06,0,-365.19,-486.75)">
        <path d="M9884.5,7948.5L9997.5,7948.5" style="fill:none;fill-rule:nonzero;stroke:black;stroke-width:12px;"/>
    </g>
    <g transform="matrix(0,0.06,0.06,0,-355.08,-476.64)">
        <path d="M9885,7780L9997,7780" style="fill:none;fill-rule:nonzero;stroke:black;stroke-width:12px;"/>
    </g>
    <g transform="matrix(0,0.06,0.06,0,-344.94,-466.5)">
        <path d="M9885,7611L9997,7611" style="fill:none;fill-rule:nonzero;stroke:black;stroke-width:12px;"/>
    </g>
    <g transform="matrix(0,0.06,0.06,0,-335.67,-457.23)">
        <path d="M9898.5,7456.5L9983.5,7456.5" style="fill:none;fill-rule:nonzero;stroke:black;stroke-width:12px;"/>
    </g>
    <g transform="matrix(0.06,0,0,0.06,-484.74,-573.18)">
        <path d="M9941,9665L10023,9665" style="fill:none;fill-rule:nonzero;stroke:black;stroke-width:12px;"/>
    </g>
    <g transform="matrix(0.06,0,0,0.06,-484.74,-573.18)">
        <path d="M10079,9665L10191,9665" style="fill:none;fill-rule:nonzero;stroke:black;stroke-width:12px;"/>
    </g>
    <g transform="matrix(0.06,0,0,0.06,-484.74,-573.18)">
        <path d="M10248,9665L10360,9665" style="fill:none;fill-rule:nonzero;stroke:black;stroke-width:12px;"/>
    </g>
    <g transform="matrix(0.06,0,0,0.06,-484.74,-573.18)">
        <path d="M10417,9665L10529,9665" style="fill:none;fill-rule:nonzero;stroke:black;stroke-width:12px;"/>
    </g>
    <g transform="matrix(0.06,0,0,0.06,-484.74,-573.18)">
        <path d="M10585,9665L10698,9665" style="fill:none;fill-rule:nonzero;stroke:black;stroke-width:12px;"/>
    </g>
    <g transform="matrix(0.06,0,0,0.06,-484.74,-573.18)">
        <path d="M10754,9665L10867,9665" style="fill:none;fill-rule:nonzero;stroke:black;stroke-width:12px;"/>
    </g>
    <g transform="matrix(0.06,0,0,0.06,-484.74,-573.18)">
        <path d="M10923,9665L11035,9665" style="fill:none;fill-rule:nonzero;stroke:black;stroke-width:12px;"/>
    </g>
    <g transform="matrix(0.06,0,0,0.06,-484.74,-573.18)">
        <path d="M11092,9665L11204,9665" style="fill:none;fill-rule:nonzero;stroke:black;stroke-width:12px;"/>
    </g>
    <g transform="matrix(0.06,0,0,0.06,-484.74,-573.18)">
        <path d="M11260,9665L11373,9665" style="fill:none;fill-rule:nonzero;stroke:black;stroke-width:12px;"/>
    </g>
    <g transform="matrix(0.06,0,0,0.06,-484.74,-573.18)">
        <path d="M11429,9665L11542,9665" style="fill:none;fill-rule:nonzero;stroke:black;stroke-width:12px;"/>
    </g>
    <g transform="matrix(0.06,0,0,0.06,-484.74,-573.18)">
        <path d="M11598,9665L11711,9665" style="fill:none;fill-rule:nonzero;stroke:black;stroke-width:12px;"/>
    </g>
    <g transform="matrix(0.06,0,0,0.06,-484.74,-573.18)">
        <path d="M11767,9665L11879,9665" style="fill:none;fill-rule:nonzero;stroke:black;stroke-width:12px;"/>
    </g>
    <g transform="matrix(0.06,0,0,0.06,-484.74,-573.18)">
        <path d="M11936,9665L12076,9665" style="fill:none;fill-rule:nonzero;stroke:black;stroke-width:12px;"/>
    </g>
    <g transform="matrix(0.06,0,0,0.06,-484.74,-568.08)">
        <path d="M12133,9580L12192,9580L12192,9665" style="fill:none;fill-rule:nonzero;stroke:black;stroke-width:12px;"/>
    </g>
    <g transform="matrix(0,0.06,0.06,0,-321.3,-712.98)">
        <path d="M12136,9468L12248,9468" style="fill:none;fill-rule:nonzero;stroke:black;stroke-width:12px;"/>
    </g>
    <g transform="matrix(0,0.06,0.06,0,-311.16,-702.84)">
        <path d="M12136,9299L12248,9299" style="fill:none;fill-rule:nonzero;stroke:black;stroke-width:12px;"/>
    </g>
    <g transform="matrix(0,0.06,0.06,0,-301.05,-692.73)">
        <path d="M12135.5,9130.5L12248.5,9130.5" style="fill:none;fill-rule:nonzero;stroke:black;stroke-width:12px;"/>
    </g>
    <g transform="matrix(0,0.06,0.06,0,-290.91,-682.59)">
        <path d="M12135.5,8961.5L12248.5,8961.5" style="fill:none;fill-rule:nonzero;stroke:black;stroke-width:12px;"/>
    </g>
    <g transform="matrix(0,0.06,0.06,0,-280.77,-672.45)">
        <path d="M12135.5,8792.5L12248.5,8792.5" style="fill:none;fill-rule:nonzero;stroke:black;stroke-width:12px;"/>
    </g>
    <g transform="matrix(0,0.06,0.06,0,-270.66,-662.34)">
        <path d="M12136,8624L12248,8624" style="fill:none;fill-rule:nonzero;stroke:black;stroke-width:12px;"/>
    </g>
    <g transform="matrix(0,0.06,0.06,0,-260.52,-652.2)">
        <path d="M12136,8455L12248,8455" style="fill:none;fill-rule:nonzero;stroke:black;stroke-width:12px;"/>
    </g>
    <g transform="matrix(0,0.06,0.06,0,-250.41,-642.09)">
        <path d="M12135.5,8286.5L12248.5,8286.5" style="fill:none;fill-rule:nonzero;stroke:black;stroke-width:12px;"/>
    </g>
    <g transform="matrix(0,0.06,0.06,0,-240.27,-631.95)">
        <path d="M12135.5,8117.5L12248.5,8117.5" style="fill:none;fill-rule:nonzero;stroke:black;stroke-width:12px;"/>
    </g>
    <g transform="matrix(0,0.06,0.06,0,-230.13,-621.81)">
        <path d="M12135.5,7948.5L12248.5,7948.5" style="fill:none;fill-rule:nonzero;stroke:black;stroke-width:12px;"/>
    </g>
    <g transform="matrix(0,0.06,0.06,0,-220.02,-611.7)">
        <path d="M12136,7780L12248,7780" style="fill:none;fill-rule:nonzero;stroke:black;stroke-width:12px;"/>
    </g>
    <g transform="matrix(0,0.06,0.06,0,-209.88,-601.56)">
        <path d="M12136,7611L12248,7611" style="fill:none;fill-rule:nonzero;stroke:black;stroke-width:12px;"/>
    </g>
    <g transform="matrix(0,0.06,0.06,0,-200.61,-592.29)">
        <path d="M12149.5,7456.5L12234.5,7456.5" style="fill:none;fill-rule:nonzero;stroke:black;stroke-width:12px;"/>
    </g>
    <g transform="matrix(0,-0.06,-0.06,0,691.62,876.3)">
        <path d="M12192,7389L12242,7389" style="fill:none;fill-rule:nonzero;stroke:black;stroke-width:12px;"/>
    </g>
    <g transform="matrix(0,-0.06,-0.06,0,553.56,738.24)">
        <path d="M9891,7389L9941,7389" style="fill:none;fill-rule:nonzero;stroke:black;stroke-width:12px;"/>
    </g>
    <g transform="matrix(0.06,0,0,0.06,-484.74,-303.06)">
        <path d="M10122,7414L10121,7411L10119,7409L10115,7409L10113,7411L10112,7414L10113,7417L10115,7419L10119,7419L10121,7417L10122,7414Z" style="fill-rule:nonzero;stroke:black;stroke-width:1.67px;"/>
    </g>
    <g transform="matrix(0.06,0,0,0.06,-484.74,-303.06)">
        <path d="M10317,7414L10245,7414" style="fill:none;fill-rule:nonzero;stroke:black;stroke-width:12px;"/>
    </g>
    <g transform="matrix(0.06,0,0,0.06,-484.74,-303.06)">
        <path d="M10189,7414L10117,7414" style="fill:none;fill-rule:nonzero;stroke:black;stroke-width:12px;"/>
    </g>
    <g transform="matrix(-0.06,0,0,0.06,925.44,-303.06)">
        <path d="M11686,7414L11817,7414" style="fill:none;fill-rule:nonzero;stroke:black;stroke-width:12px;"/>
    </g>
    <g transform="matrix(-0.06,0,0,0.06,904.02,-303.06)">
        <path d="M11517,7414L11629,7414" style="fill:none;fill-rule:nonzero;stroke:black;stroke-width:12px;"/>
    </g>
    <g transform="matrix(-0.06,0,0,0.06,883.8,-303.06)">
        <path d="M11348,7414L11461,7414" style="fill:none;fill-rule:nonzero;stroke:black;stroke-width:12px;"/>
    </g>
    <g transform="matrix(-0.06,0,0,0.06,863.52,-303.06)">
        <path d="M11179,7414L11292,7414" style="fill:none;fill-rule:nonzero;stroke:black;stroke-width:12px;"/>
    </g>
    <g transform="matrix(-0.06,0,0,0.06,843.24,-303.06)">
        <path d="M11010,7414L11123,7414" style="fill:none;fill-rule:nonzero;stroke:black;stroke-width:12px;"/>
    </g>
    <g transform="matrix(-0.06,0,0,0.06,823.02,-303.06)">
        <path d="M10842,7414L10954,7414" style="fill:none;fill-rule:nonzero;stroke:black;stroke-width:12px;"/>
    </g>
    <g transform="matrix(-0.06,0,0,0.06,802.74,-303.06)">
        <path d="M10673,7414L10785,7414" style="fill:none;fill-rule:nonzero;stroke:black;stroke-width:12px;"/>
    </g>
    <g transform="matrix(-0.06,0,0,0.06,782.52,-303.06)">
        <path d="M10504,7414L10617,7414" style="fill:none;fill-rule:nonzero;stroke:black;stroke-width:12px;"/>
    </g>
    <g transform="matrix(-0.06,0,0,0.06,761.16,-303.06)">
        <path d="M10317,7414L10448,7414" style="fill:none;fill-rule:nonzero;stroke:black;stroke-width:12px;"/>
    </g>
    <g transform="matrix(0.06,0,0,0.06,-484.74,-573.18)">
        <path d="M9916,9665L9941,9665" style="fill:none;fill-rule:nonzero;stroke:black;stroke-width:12px;"/>
    </g>
    <g transform="matrix(0.06,0,0,0.06,-484.74,-573.18)">
        <path d="M12192,9665L12217,9665" style="fill:none;fill-rule:nonzero;stroke:black;stroke-width:12px;"/>
    </g>
    <g transform="matrix(0.06,0,0,0.06,-484.74,-441.12)">
        <path d="M12292,9765L12292,7364L8091,7364L8091,9765" style="fill:none;fill-rule:nonzero;stroke:black;stroke-width:24px;"/>
    </g>
</svg>
