<?xml version="1.0" encoding="UTF-8" standalone="no"?>
<!DOCTYPE svg PUBLIC "-//W3C//DTD SVG 1.1//EN" "http://www.w3.org/Graphics/SVG/1.1/DTD/svg11.dtd">
<svg width="100%" height="100%" viewBox="0 0 509 236" version="1.1" xmlns="http://www.w3.org/2000/svg" xmlns:xlink="http://www.w3.org/1999/xlink" xml:space="preserve" xmlns:serif="http://www.serif.com/" style="fill-rule:evenodd;clip-rule:evenodd;stroke-linecap:round;stroke-linejoin:round;stroke-miterlimit:10;">
    <g transform="matrix(0.06,0,0,0.06,-361.92,-141.18)">
        <path d="M6455,6265L14073,6265" style="fill:none;fill-rule:nonzero;stroke:black;stroke-width:24px;"/>
    </g>
    <g transform="matrix(0.0458478,-0.0387037,-0.0387037,-0.0458478,84.399,1069.29)">
        <path d="M14043,6349.5C14117.9,6286.2 14227.5,6286.2 14301.9,6349.5" style="fill:none;fill-rule:nonzero;stroke:black;stroke-width:24px;"/>
    </g>
    <g transform="matrix(0,-0.06,-0.06,0,988.68,972.78)">
        <path d="M12622,8237L15924,8237" style="fill:none;fill-rule:nonzero;stroke:black;stroke-width:24px;"/>
    </g>
    <g transform="matrix(-0.0458478,-0.0387037,-0.0387037,0.0458478,1528.39,92.0391)">
        <path d="M14043,10081.5C14117.3,10018.2 14226.9,10018.2 14301.9,10081.5" style="fill:none;fill-rule:nonzero;stroke:black;stroke-width:24px;"/>
    </g>
    <g transform="matrix(0.06,0,0,0.06,-361.92,-585.18)">
        <path d="M6262,9965L6305,9965" style="fill:none;fill-rule:nonzero;stroke:black;stroke-width:12px;"/>
    </g>
    <g transform="matrix(-0.0425676,0.0422848,0.0422848,0.0425676,-132.063,-688.972)">
        <path d="M6274.18,10040.2C6333.15,9981.67 6428.13,9981.67 6486.32,10040.2" style="fill:none;fill-rule:nonzero;stroke:black;stroke-width:12px;"/>
    </g>
    <g transform="matrix(0.06,0,0,0.06,-361.92,-606.18)">
        <path d="M6455,10165L6455,10115" style="fill:none;fill-rule:nonzero;stroke:black;stroke-width:12px;"/>
    </g>
    <g transform="matrix(-0.0497589,0.0335269,0.0335269,0.0497589,-2.28635,-711.507)">
        <path d="M6250.17,10102.3C6318.17,10056.5 6407.08,10056.5 6474.66,10102.3" style="fill:none;fill-rule:nonzero;stroke:black;stroke-width:24px;"/>
    </g>
    <g transform="matrix(0.06,0,0,0.06,-361.92,-606.18)">
        <path d="M14073,10165L14073,10115" style="fill:none;fill-rule:nonzero;stroke:black;stroke-width:12px;"/>
    </g>
    <g transform="matrix(-0.06,0,0,0.06,869.76,-609.18)">
        <path d="M6455,10165L14073,10165" style="fill:none;fill-rule:nonzero;stroke:black;stroke-width:24px;"/>
    </g>
    <g transform="matrix(0.06,0,0,0.06,-361.92,-603.18)">
        <path d="M6455,10115L14073,10115" style="fill:none;fill-rule:nonzero;stroke:black;stroke-width:12px;"/>
    </g>
    <g transform="matrix(0.06,0,0,0.06,-361.92,-585.18)">
        <path d="M14223,9965L14270,9965" style="fill:none;fill-rule:nonzero;stroke:black;stroke-width:12px;"/>
    </g>
    <g transform="matrix(-0.0422848,-0.0425676,-0.0425676,0.0422848,486.975,1.811)">
        <path d="M-181.317,74.75C-122.347,16.172 -27.372,16.172 30.817,74.75" style="fill:none;fill-rule:nonzero;stroke:black;stroke-width:12px;"/>
    </g>
    <g transform="matrix(0.06,0,0,0.06,-361.92,-375.18)">
        <path d="M14223,6465L14223,9965L14270,9965" style="fill:none;fill-rule:nonzero;stroke:black;stroke-width:12px;"/>
    </g>
    <g transform="matrix(0.06,0,0,0.06,-361.92,-144.18)">
        <path d="M14073,6265L14073,6315" style="fill:none;fill-rule:nonzero;stroke:black;stroke-width:12px;"/>
    </g>
    <g transform="matrix(0.0425676,-0.0422848,-0.0422848,-0.0425676,493.369,227.175)">
        <path d="M-181.317,74.75C-122.347,16.172 -27.372,16.172 30.817,74.75" style="fill:none;fill-rule:nonzero;stroke:black;stroke-width:12px;"/>
    </g>
    <g transform="matrix(0.06,0,0,0.06,-361.92,-144.18)">
        <path d="M14073,6265L6455,6265L6455,6315" style="fill:none;fill-rule:nonzero;stroke:black;stroke-width:12px;"/>
    </g>
    <g transform="matrix(-0.06,0,0,0.06,392.1,-165.18)">
        <path d="M6262,6465L6305,6465" style="fill:none;fill-rule:nonzero;stroke:black;stroke-width:12px;"/>
    </g>
    <g transform="matrix(0.049759,0.0335268,0.0335268,-0.049759,-508.944,332.496)">
        <path d="M6250.17,6328.72C6317.75,6282.9 6406.66,6282.9 6474.66,6328.72" style="fill:none;fill-rule:nonzero;stroke:black;stroke-width:24px;"/>
    </g>
    <g transform="matrix(0.0422848,0.0425676,0.0425676,-0.0422848,20.925,233.569)">
        <path d="M-181.317,74.75C-122.347,16.172 -27.372,16.172 30.817,74.75" style="fill:none;fill-rule:nonzero;stroke:black;stroke-width:12px;"/>
    </g>
    <g transform="matrix(0,-0.06,-0.06,0,509.28,496.02)">
        <path d="M4555,8215L8055,8215" style="fill:none;fill-rule:nonzero;stroke:black;stroke-width:12px;"/>
    </g>
    <g transform="matrix(0,0.06,0.06,0,-480.84,-258.9)">
        <path d="M4604,8237L7906,8237" style="fill:none;fill-rule:nonzero;stroke:black;stroke-width:24px;"/>
    </g>
    <g transform="matrix(0,-0.06,-0.06,0,397.44,603.54)">
        <path d="M6243,6387L6295,6387" style="fill:none;fill-rule:nonzero;stroke:black;stroke-width:24px;"/>
    </g>
    <g transform="matrix(0.06,0,0,0.06,-361.92,-152.94)">
        <path d="M6269,6363L6283,6363" style="fill:none;fill-rule:nonzero;stroke:black;stroke-width:24px;"/>
    </g>
    <g transform="matrix(0.06,0,0,0.06,-361.92,-152.94)">
        <path d="M14245,6363L14270,6363" style="fill:none;fill-rule:nonzero;stroke:black;stroke-width:24px;"/>
    </g>
    <g transform="matrix(-0.06,0,0,0.06,1346.7,-602.94)">
        <path d="M14207,10113L14270,10113" style="fill:none;fill-rule:nonzero;stroke:black;stroke-width:24px;"/>
    </g>
    <g transform="matrix(0.06,0,0,0.06,-361.92,-597.18)">
        <path d="M6320,10017L6269,10017L6269,10113" style="fill:none;fill-rule:nonzero;stroke:black;stroke-width:24px;"/>
    </g>
    <g transform="matrix(0,0.06,0.06,0,-484.5,-255.24)">
        <path d="M4543,8237L7845,8237" style="fill:none;fill-rule:nonzero;stroke:black;stroke-width:24px;"/>
    </g>
    <g transform="matrix(0,-0.06,-0.06,0,499.44,483.54)">
        <path d="M4468,8237L7770,8237" style="fill:none;fill-rule:nonzero;stroke:black;stroke-width:24px;"/>
    </g>
    <g transform="matrix(0.06,0,0,0.06,-361.92,-166.2)">
        <path d="M6262,6361L6044,6361L6044,6586L6269,6586" style="fill:none;fill-rule:nonzero;stroke:black;stroke-width:24px;"/>
    </g>
    <g transform="matrix(0.06,0,0,0.06,-361.92,-589.44)">
        <path d="M6269,9888L6045,9888L6045,10113L6262,10113" style="fill:none;fill-rule:nonzero;stroke:black;stroke-width:24px;"/>
    </g>
    <g transform="matrix(0,0.06,0.06,0,-105.75,-845.61)">
        <path d="M14157.5,10000.5L14382.5,10000.5" style="fill:none;fill-rule:nonzero;stroke:black;stroke-width:24px;"/>
    </g>
    <g transform="matrix(0,0.06,0.06,0,105.81,-634.05)">
        <path d="M14158.5,6474.5L14381.5,6474.5" style="fill:none;fill-rule:nonzero;stroke:black;stroke-width:24px;"/>
    </g>
    <g transform="matrix(0,0.06,0.06,0,9,-748.86)">
        <path d="M12770,8238L16070,8238" style="fill:none;fill-rule:nonzero;stroke:black;stroke-width:24px;"/>
    </g>
    <g transform="matrix(0.06,0,0,0.06,-361.92,-377.94)">
        <path d="M14273,9888L14345,9888L14345,6588" style="fill:none;fill-rule:nonzero;stroke:black;stroke-width:24px;"/>
    </g>
    <g transform="matrix(0.06,0,0,0.06,-361.92,-179.82)">
        <path d="M14420,6586L14495,6586L14495,6588L14270,6588" style="fill:none;fill-rule:nonzero;stroke:black;stroke-width:24px;"/>
    </g>
    <g transform="matrix(0.06,0,0,0.06,-361.92,-166.32)">
        <path d="M14270,6586L14495,6586L14495,6363" style="fill:none;fill-rule:nonzero;stroke:black;stroke-width:24px;"/>
    </g>
    <g transform="matrix(0.06,0,0,0.06,-361.92,-575.94)">
        <path d="M14270,9888L14494,9888" style="fill:none;fill-rule:nonzero;stroke:black;stroke-width:24px;"/>
    </g>
    <g transform="matrix(0.06,0,0,0.06,-361.92,-589.44)">
        <path d="M14494,10113L14494,9888L14270,9888" style="fill:none;fill-rule:nonzero;stroke:black;stroke-width:24px;"/>
    </g>
    <g transform="matrix(0,0.06,0.06,0,-581.79,-360.69)">
        <path d="M6223.5,9926.5L6300.5,9926.5" style="fill:none;fill-rule:nonzero;stroke:black;stroke-width:12px;"/>
    </g>
    <g transform="matrix(0,0.06,0.06,0,-377.73,-156.63)">
        <path d="M6201.5,6525.5L6322.5,6525.5" style="fill:none;fill-rule:nonzero;stroke:black;stroke-width:12px;"/>
    </g>
    <g transform="matrix(-0.00814058,0.0594452,0.0594452,0.00814058,-528.853,-442.714)">
        <path d="M6240.43,9991.38C6257.76,9989 6275.33,9989 6292.66,9991.38" style="fill:none;fill-rule:nonzero;stroke:black;stroke-width:12px;"/>
    </g>
    <g transform="matrix(0.00814058,0.0594452,0.0594452,-0.00814058,-419.745,-95.8511)">
        <path d="M6240.43,6439.62C6257.76,6437.25 6275.33,6437.25 6292.66,6439.62" style="fill:none;fill-rule:nonzero;stroke:black;stroke-width:12px;"/>
    </g>
</svg>
