<?xml version="1.0" encoding="UTF-8" standalone="no"?>
<!DOCTYPE svg PUBLIC "-//W3C//DTD SVG 1.1//EN" "http://www.w3.org/Graphics/SVG/1.1/DTD/svg11.dtd">
<svg width="100%" height="100%" viewBox="0 0 1016 470" version="1.1" xmlns="http://www.w3.org/2000/svg" xmlns:xlink="http://www.w3.org/1999/xlink" xml:space="preserve" xmlns:serif="http://www.serif.com/" style="fill-rule:evenodd;clip-rule:evenodd;stroke-linecap:round;stroke-linejoin:round;stroke-miterlimit:10;">
    <g transform="matrix(0.06,0,0,0.06,-107.52,200.4)">
        <path d="M2625,4472L17859,4472" style="fill:none;fill-rule:nonzero;stroke:black;stroke-width:24px;"/>
    </g>
    <g transform="matrix(0.0457523,-0.0388166,-0.0388166,-0.0457523,329.863,1371.82)">
        <path d="M17798.1,4640.2C17947.2,4513.72 18165.9,4513.72 18315,4640.2" style="fill:none;fill-rule:nonzero;stroke:black;stroke-width:24px;"/>
    </g>
    <g transform="matrix(0,-0.06,-0.06,0,1493.01,1327.59)">
        <path d="M14957.5,8416.5L21560.5,8416.5" style="fill:none;fill-rule:nonzero;stroke:black;stroke-width:24px;"/>
    </g>
    <g transform="matrix(-0.0457522,-0.0388167,-0.0388167,0.0457522,2271.87,157.827)">
        <path d="M17798.1,12104.8C17947.2,11978.3 18165.9,11978.3 18315,12104.8" style="fill:none;fill-rule:nonzero;stroke:black;stroke-width:24px;"/>
    </g>
    <g transform="matrix(0.06,0,0,0.06,-107.52,-687.6)">
        <path d="M2240,11872L2325,11872" style="fill:none;fill-rule:nonzero;stroke:black;stroke-width:12px;"/>
    </g>
    <g transform="matrix(-0.0424264,0.0424264,0.0424264,0.0424264,-363.999,-599.393)">
        <path d="M2263.97,12022.2C2380.93,11905.3 2570.57,11905.3 2687.53,12022.2" style="fill:none;fill-rule:nonzero;stroke:black;stroke-width:12px;"/>
    </g>
    <g transform="matrix(0.06,0,0,0.06,-107.52,-729.6)">
        <path d="M2625,12272L2625,12172" style="fill:none;fill-rule:nonzero;stroke:black;stroke-width:12px;"/>
    </g>
    <g transform="matrix(-0.0496811,0.0336421,0.0336421,0.0496811,-248.526,-677.278)">
        <path d="M2216.02,12146.4C2351.31,12054.8 2528.74,12054.8 2664.02,12146.4" style="fill:none;fill-rule:nonzero;stroke:black;stroke-width:24px;"/>
    </g>
    <g transform="matrix(0.06,0,0,0.06,-107.52,-729.6)">
        <path d="M17859,12272L17859,12172" style="fill:none;fill-rule:nonzero;stroke:black;stroke-width:12px;"/>
    </g>
    <g transform="matrix(-0.06,0,0,0.06,1121.52,-735.6)">
        <path d="M2625,12272L17859,12272" style="fill:none;fill-rule:nonzero;stroke:black;stroke-width:24px;"/>
    </g>
    <g transform="matrix(0.06,0,0,0.06,-107.52,-723.6)">
        <path d="M2625,12172L17859,12172" style="fill:none;fill-rule:nonzero;stroke:black;stroke-width:12px;"/>
    </g>
    <g transform="matrix(0.06,0,0,0.06,-107.52,-687.6)">
        <path d="M18159,11872L18254,11872" style="fill:none;fill-rule:nonzero;stroke:black;stroke-width:12px;"/>
    </g>
    <g transform="matrix(-0.0424264,-0.0424264,-0.0424264,0.0424264,973.035,2.99829)">
        <path d="M-361.528,149.75C-244.566,32.788 -54.934,32.788 62.028,149.75" style="fill:none;fill-rule:nonzero;stroke:black;stroke-width:12px;"/>
    </g>
    <g transform="matrix(0.06,0,0,0.06,-107.52,-267.6)">
        <path d="M18159,4872L18159,11872L18254,11872" style="fill:none;fill-rule:nonzero;stroke:black;stroke-width:12px;"/>
    </g>
    <g transform="matrix(0.06,0,0,0.06,-107.52,194.4)">
        <path d="M17859,4472L17859,4572" style="fill:none;fill-rule:nonzero;stroke:black;stroke-width:12px;"/>
    </g>
    <g transform="matrix(0.0424264,-0.0424264,-0.0424264,-0.0424264,985.742,453.675)">
        <path d="M-361.528,149.75C-244.566,32.788 -54.934,32.788 62.028,149.75" style="fill:none;fill-rule:nonzero;stroke:black;stroke-width:12px;"/>
    </g>
    <g transform="matrix(0.06,0,0,0.06,-107.52,194.4)">
        <path d="M17859,4472L2625,4472L2625,4572" style="fill:none;fill-rule:nonzero;stroke:black;stroke-width:12px;"/>
    </g>
    <g transform="matrix(0.06,0,0,0.06,-107.52,152.4)">
        <path d="M2325,4872L2240,4872" style="fill:none;fill-rule:nonzero;stroke:black;stroke-width:12px;"/>
    </g>
    <g transform="matrix(0.0496811,0.0336421,0.0336421,-0.0496811,-237.048,607.5)">
        <path d="M2216.02,4598.6C2351.31,4506.99 2528.74,4506.99 2664.02,4598.6" style="fill:none;fill-rule:nonzero;stroke:black;stroke-width:24px;"/>
    </g>
    <g transform="matrix(0.0424264,0.0424264,0.0424264,-0.0424264,41.025,466.382)">
        <path d="M-361.528,149.75C-244.566,32.788 -54.934,32.788 62.028,149.75" style="fill:none;fill-rule:nonzero;stroke:black;stroke-width:12px;"/>
    </g>
    <g transform="matrix(0,-0.06,-0.06,0,534.3,374.22)">
        <path d="M-1175,8372L5825,8372" style="fill:none;fill-rule:nonzero;stroke:black;stroke-width:12px;"/>
    </g>
    <g transform="matrix(0,0.06,0.06,0,-479.01,98.55)">
        <path d="M-1076.5,8416.5L5526.5,8416.5" style="fill:none;fill-rule:nonzero;stroke:black;stroke-width:24px;"/>
    </g>
    <g transform="matrix(0,-0.06,-0.06,0,310.71,589.29)">
        <path d="M2202.5,4716.5L2305.5,4716.5" style="fill:none;fill-rule:nonzero;stroke:black;stroke-width:24px;"/>
    </g>
    <g transform="matrix(0.06,0,0,0.06,-107.52,176.88)">
        <path d="M2254,4668L2281,4668" style="fill:none;fill-rule:nonzero;stroke:black;stroke-width:24px;"/>
    </g>
    <g transform="matrix(0.06,0,0,0.06,-107.52,176.88)">
        <path d="M18203,4668L18254,4668" style="fill:none;fill-rule:nonzero;stroke:black;stroke-width:24px;"/>
    </g>
    <g transform="matrix(-0.06,0,0,0.06,2075.46,-723.12)">
        <path d="M18129,12168L18254,12168" style="fill:none;fill-rule:nonzero;stroke:black;stroke-width:24px;"/>
    </g>
    <g transform="matrix(0.06,0,0,0.06,-107.52,-711.6)">
        <path d="M2356,11976L2254,11976L2254,12168" style="fill:none;fill-rule:nonzero;stroke:black;stroke-width:24px;"/>
    </g>
    <g transform="matrix(0,0.06,0.06,0,-486.27,105.81)">
        <path d="M-1197.5,8416.5L5405.5,8416.5" style="fill:none;fill-rule:nonzero;stroke:black;stroke-width:24px;"/>
    </g>
    <g transform="matrix(0,-0.06,-0.06,0,514.71,349.29)">
        <path d="M-1347.5,8416.5L5255.5,8416.5" style="fill:none;fill-rule:nonzero;stroke:black;stroke-width:24px;"/>
    </g>
    <g transform="matrix(0.06,0,0,0.06,-107.52,150.24)">
        <path d="M2240,4665L1804,4665L1804,5115L2254,5115" style="fill:none;fill-rule:nonzero;stroke:black;stroke-width:24px;"/>
    </g>
    <g transform="matrix(0.06,0,0,0.06,-107.52,-696.12)">
        <path d="M2254,11718L1805,11718L1805,12168L2240,12168" style="fill:none;fill-rule:nonzero;stroke:black;stroke-width:24px;"/>
    </g>
    <g transform="matrix(0,0.06,0.06,0,271.14,-1074.78)">
        <path d="M18029,11943L18479,11943" style="fill:none;fill-rule:nonzero;stroke:black;stroke-width:24px;"/>
    </g>
    <g transform="matrix(0,0.06,0.06,0,694.23,-651.69)">
        <path d="M18030.5,4891.5L18477.5,4891.5" style="fill:none;fill-rule:nonzero;stroke:black;stroke-width:24px;"/>
    </g>
    <g transform="matrix(0,0.06,0.06,0,500.64,-881.28)">
        <path d="M15254,8418L21854,8418" style="fill:none;fill-rule:nonzero;stroke:black;stroke-width:24px;"/>
    </g>
    <g transform="matrix(0.06,0,0,0.06,-107.52,-273.12)">
        <path d="M18259,11718L18404,11718L18404,5118" style="fill:none;fill-rule:nonzero;stroke:black;stroke-width:24px;"/>
    </g>
    <g transform="matrix(0.06,0,0,0.06,-107.52,123.06)">
        <path d="M18554,5115L18704,5115L18704,5118L18254,5118" style="fill:none;fill-rule:nonzero;stroke:black;stroke-width:24px;"/>
    </g>
    <g transform="matrix(0.06,0,0,0.06,-107.52,150.06)">
        <path d="M18254,5115L18704,5115L18704,4668" style="fill:none;fill-rule:nonzero;stroke:black;stroke-width:24px;"/>
    </g>
    <g transform="matrix(0.06,0,0,0.06,-107.52,-669.12)">
        <path d="M18254,11718L18703,11718" style="fill:none;fill-rule:nonzero;stroke:black;stroke-width:24px;"/>
    </g>
    <g transform="matrix(0.06,0,0,0.06,-107.52,-696.12)">
        <path d="M18703,12168L18703,11718L18254,11718" style="fill:none;fill-rule:nonzero;stroke:black;stroke-width:24px;"/>
    </g>
    <g transform="matrix(0,0.06,0.06,0,-680.82,-105.06)">
        <path d="M2163,11795L2317,11795" style="fill:none;fill-rule:nonzero;stroke:black;stroke-width:12px;"/>
    </g>
    <g transform="matrix(0,0.06,0.06,0,-272.73,303.03)">
        <path d="M2118.5,4993.5L2361.5,4993.5" style="fill:none;fill-rule:nonzero;stroke:black;stroke-width:12px;"/>
    </g>
    <g transform="matrix(-0.00814036,0.0594452,0.0594452,0.00814036,-663.246,-209.066)">
        <path d="M2194.79,11924.3C2229.5,11919.6 2264.69,11919.6 2299.4,11924.3" style="fill:none;fill-rule:nonzero;stroke:black;stroke-width:12px;"/>
    </g>
    <g transform="matrix(0.00814036,0.0594452,0.0594452,-0.00814036,-277.553,353.462)">
        <path d="M2194.79,4820.68C2229.5,4815.93 2264.69,4815.93 2299.4,4820.68" style="fill:none;fill-rule:nonzero;stroke:black;stroke-width:12px;"/>
    </g>
</svg>
