<?xml version="1.0" encoding="UTF-8" standalone="no"?>
<!DOCTYPE svg PUBLIC "-//W3C//DTD SVG 1.1//EN" "http://www.w3.org/Graphics/SVG/1.1/DTD/svg11.dtd">
<svg width="100%" height="100%" viewBox="0 0 143 143" version="1.1" xmlns="http://www.w3.org/2000/svg" xmlns:xlink="http://www.w3.org/1999/xlink" xml:space="preserve" xmlns:serif="http://www.serif.com/" style="fill-rule:evenodd;clip-rule:evenodd;stroke-linecap:round;stroke-linejoin:round;stroke-miterlimit:10;">
    <g transform="matrix(0.06,0,0,0.06,-523.32,-313.5)">
        <path d="M8809,7588L8809,7538L8869,7538" style="fill:none;fill-rule:nonzero;stroke:black;stroke-width:12px;"/>
    </g>
    <g transform="matrix(0.06,0,0,0.06,-523.32,-316.5)">
        <path d="M8925,7588L9037,7588" style="fill:none;fill-rule:nonzero;stroke:black;stroke-width:12px;"/>
    </g>
    <g transform="matrix(0.06,0,0,0.06,-523.32,-316.5)">
        <path d="M9094,7588L9206,7588" style="fill:none;fill-rule:nonzero;stroke:black;stroke-width:12px;"/>
    </g>
    <g transform="matrix(0.06,0,0,0.06,-523.32,-316.5)">
        <path d="M9262,7588L9375,7588" style="fill:none;fill-rule:nonzero;stroke:black;stroke-width:12px;"/>
    </g>
    <g transform="matrix(0.06,0,0,0.06,-523.32,-316.5)">
        <path d="M9431,7588L9544,7588" style="fill:none;fill-rule:nonzero;stroke:black;stroke-width:12px;"/>
    </g>
    <g transform="matrix(0.06,0,0,0.06,-523.32,-316.5)">
        <path d="M9600,7588L9713,7588" style="fill:none;fill-rule:nonzero;stroke:black;stroke-width:12px;"/>
    </g>
    <g transform="matrix(0.06,0,0,0.06,-523.32,-316.5)">
        <path d="M9769,7588L9881,7588" style="fill:none;fill-rule:nonzero;stroke:black;stroke-width:12px;"/>
    </g>
    <g transform="matrix(0.06,0,0,0.06,-523.32,-316.5)">
        <path d="M9938,7588L10050,7588" style="fill:none;fill-rule:nonzero;stroke:black;stroke-width:12px;"/>
    </g>
    <g transform="matrix(0.06,0,0,0.06,-523.32,-316.5)">
        <path d="M10106,7588L10219,7588" style="fill:none;fill-rule:nonzero;stroke:black;stroke-width:12px;"/>
    </g>
    <g transform="matrix(0.06,0,0,0.06,-523.32,-316.5)">
        <path d="M10275,7588L10388,7588" style="fill:none;fill-rule:nonzero;stroke:black;stroke-width:12px;"/>
    </g>
    <g transform="matrix(0.06,0,0,0.06,-523.32,-316.5)">
        <path d="M10444,7588L10557,7588" style="fill:none;fill-rule:nonzero;stroke:black;stroke-width:12px;"/>
    </g>
    <g transform="matrix(0.06,0,0,0.06,-523.32,-316.5)">
        <path d="M10613,7588L10725,7588" style="fill:none;fill-rule:nonzero;stroke:black;stroke-width:12px;"/>
    </g>
    <g transform="matrix(0.06,0,0,0.06,-523.32,-316.5)">
        <path d="M10782,7588L10894,7588" style="fill:none;fill-rule:nonzero;stroke:black;stroke-width:12px;"/>
    </g>
    <g transform="matrix(0.06,0,0,0.06,-523.32,-313.5)">
        <path d="M10950,7538L11010,7538L11010,7588" style="fill:none;fill-rule:nonzero;stroke:black;stroke-width:12px;"/>
    </g>
    <g transform="matrix(0.06,0,0,0.06,-523.32,-310.5)">
        <path d="M8734,7538L11085,7538" style="fill:none;fill-rule:nonzero;stroke:black;stroke-width:24px;"/>
    </g>
    <g transform="matrix(0.06,0,0,0.06,-523.32,-319.5)">
        <path d="M8809,7638L8809,7588L8869,7588" style="fill:none;fill-rule:nonzero;stroke:black;stroke-width:12px;"/>
    </g>
    <g transform="matrix(0.06,0,0,0.06,-523.32,-322.5)">
        <path d="M8925,7638L9037,7638" style="fill:none;fill-rule:nonzero;stroke:black;stroke-width:12px;"/>
    </g>
    <g transform="matrix(0.06,0,0,0.06,-523.32,-322.5)">
        <path d="M9094,7638L9206,7638" style="fill:none;fill-rule:nonzero;stroke:black;stroke-width:12px;"/>
    </g>
    <g transform="matrix(0.06,0,0,0.06,-523.32,-322.5)">
        <path d="M9262,7638L9375,7638" style="fill:none;fill-rule:nonzero;stroke:black;stroke-width:12px;"/>
    </g>
    <g transform="matrix(0.06,0,0,0.06,-523.32,-322.5)">
        <path d="M9431,7638L9544,7638" style="fill:none;fill-rule:nonzero;stroke:black;stroke-width:12px;"/>
    </g>
    <g transform="matrix(0.06,0,0,0.06,-523.32,-322.5)">
        <path d="M9600,7638L9713,7638" style="fill:none;fill-rule:nonzero;stroke:black;stroke-width:12px;"/>
    </g>
    <g transform="matrix(0.06,0,0,0.06,-523.32,-322.5)">
        <path d="M9769,7638L9881,7638" style="fill:none;fill-rule:nonzero;stroke:black;stroke-width:12px;"/>
    </g>
    <g transform="matrix(0.06,0,0,0.06,-523.32,-322.5)">
        <path d="M9938,7638L10050,7638" style="fill:none;fill-rule:nonzero;stroke:black;stroke-width:12px;"/>
    </g>
    <g transform="matrix(0.06,0,0,0.06,-523.32,-322.5)">
        <path d="M10106,7638L10219,7638" style="fill:none;fill-rule:nonzero;stroke:black;stroke-width:12px;"/>
    </g>
    <g transform="matrix(0.06,0,0,0.06,-523.32,-322.5)">
        <path d="M10275,7638L10388,7638" style="fill:none;fill-rule:nonzero;stroke:black;stroke-width:12px;"/>
    </g>
    <g transform="matrix(0.06,0,0,0.06,-523.32,-322.5)">
        <path d="M10444,7638L10557,7638" style="fill:none;fill-rule:nonzero;stroke:black;stroke-width:12px;"/>
    </g>
    <g transform="matrix(0.06,0,0,0.06,-523.32,-322.5)">
        <path d="M10613,7638L10725,7638" style="fill:none;fill-rule:nonzero;stroke:black;stroke-width:12px;"/>
    </g>
    <g transform="matrix(0.06,0,0,0.06,-523.32,-322.5)">
        <path d="M10782,7638L10894,7638" style="fill:none;fill-rule:nonzero;stroke:black;stroke-width:12px;"/>
    </g>
    <g transform="matrix(0.06,0,0,0.06,-523.32,-319.5)">
        <path d="M10950,7588L11010,7588L11010,7638" style="fill:none;fill-rule:nonzero;stroke:black;stroke-width:12px;"/>
    </g>
    <g transform="matrix(0.06,0,0,0.06,-523.32,-451.56)">
        <path d="M11085,9889L11085,7538L8734,7538L8734,9889" style="fill:none;fill-rule:nonzero;stroke:black;stroke-width:24px;"/>
    </g>
</svg>
