<?xml version="1.0" encoding="UTF-8" standalone="no"?>
<!DOCTYPE svg PUBLIC "-//W3C//DTD SVG 1.1//EN" "http://www.w3.org/Graphics/SVG/1.1/DTD/svg11.dtd">
<svg width="144" height="11" viewBox="0 0 144 11" version="1.1" xmlns="http://www.w3.org/2000/svg" xmlns:xlink="http://www.w3.org/1999/xlink" xml:space="preserve" xmlns:serif="http://www.serif.com/" style="fill-rule:evenodd;clip-rule:evenodd;stroke-linejoin:round;stroke-miterlimit:2;">
    <g transform="matrix(1,0,0,1,-49.4453,-709.738)">
        <path d="M121.445,714.996L121.445,720.234L193.445,714.996"/>
    </g>
    <g transform="matrix(1,0,0,1,-49.4453,-709.738)">
        <path d="M121.445,720.234L193.445,714.996L193.445,720.234"/>
    </g>
    <g transform="matrix(1,0,0,1,-49.4453,-709.738)">
        <path d="M85.445,709.738L85.445,714.977L121.445,709.738"/>
    </g>
    <g transform="matrix(1,0,0,1,-49.4453,-709.738)">
        <path d="M85.445,714.977L121.445,709.738L121.445,714.977"/>
    </g>
    <g transform="matrix(1,0,0,1,-49.4453,-709.738)">
        <path d="M49.445,714.977L49.445,720.215L85.445,714.977"/>
    </g>
    <g transform="matrix(1,0,0,1,-49.4453,-709.738)">
        <path d="M49.445,720.215L85.445,714.977L85.445,720.215"/>
    </g>
</svg>
