<?xml version="1.0" encoding="UTF-8" standalone="no"?>
<!DOCTYPE svg PUBLIC "-//W3C//DTD SVG 1.1//EN" "http://www.w3.org/Graphics/SVG/1.1/DTD/svg11.dtd">
<svg width="218" height="146" viewBox="0 0 218 146" version="1.1" xmlns="http://www.w3.org/2000/svg" xmlns:xlink="http://www.w3.org/1999/xlink" xml:space="preserve" xmlns:serif="http://www.serif.com/" style="fill-rule:evenodd;clip-rule:evenodd;stroke-linecap:round;stroke-linejoin:round;stroke-miterlimit:10;">
    <g transform="matrix(0,-0.06,-0.06,0,456.27,621.21)">
        <path d="M8015.5,7514.5L8040.5,7514.5" style="fill:none;fill-rule:nonzero;stroke:black;stroke-width:12px;"/>
    </g>
    <g transform="matrix(0,-0.06,-0.06,0,663.21,828.15)">
        <path d="M11464.5,7514.5L11489.5,7514.5" style="fill:none;fill-rule:nonzero;stroke:black;stroke-width:12px;"/>
    </g>
    <g transform="matrix(0.06,0,0,0.06,-476.28,-312.84)">
        <path d="M8028,7527L8121,7527" style="fill:none;fill-rule:nonzero;stroke:black;stroke-width:12px;"/>
    </g>
    <g transform="matrix(0.06,0,0,0.06,-476.28,-312.84)">
        <path d="M8177,7527L8289,7527" style="fill:none;fill-rule:nonzero;stroke:black;stroke-width:12px;"/>
    </g>
    <g transform="matrix(0.06,0,0,0.06,-476.28,-312.84)">
        <path d="M8346,7527L8458,7527" style="fill:none;fill-rule:nonzero;stroke:black;stroke-width:12px;"/>
    </g>
    <g transform="matrix(0.06,0,0,0.06,-476.28,-312.84)">
        <path d="M8515,7527L8627,7527" style="fill:none;fill-rule:nonzero;stroke:black;stroke-width:12px;"/>
    </g>
    <g transform="matrix(0.06,0,0,0.06,-476.28,-312.84)">
        <path d="M8683,7527L8796,7527" style="fill:none;fill-rule:nonzero;stroke:black;stroke-width:12px;"/>
    </g>
    <g transform="matrix(0.06,0,0,0.06,-476.28,-312.84)">
        <path d="M8852,7527L8965,7527" style="fill:none;fill-rule:nonzero;stroke:black;stroke-width:12px;"/>
    </g>
    <g transform="matrix(0.06,0,0,0.06,-476.28,-312.84)">
        <path d="M9021,7527L9133,7527" style="fill:none;fill-rule:nonzero;stroke:black;stroke-width:12px;"/>
    </g>
    <g transform="matrix(0.06,0,0,0.06,-476.28,-312.84)">
        <path d="M9190,7527L9302,7527" style="fill:none;fill-rule:nonzero;stroke:black;stroke-width:12px;"/>
    </g>
    <g transform="matrix(0.06,0,0,0.06,-476.28,-312.84)">
        <path d="M9358,7527L9471,7527" style="fill:none;fill-rule:nonzero;stroke:black;stroke-width:12px;"/>
    </g>
    <g transform="matrix(0.06,0,0,0.06,-476.28,-312.84)">
        <path d="M9527,7527L9640,7527" style="fill:none;fill-rule:nonzero;stroke:black;stroke-width:12px;"/>
    </g>
    <g transform="matrix(0.06,0,0,0.06,-476.28,-312.84)">
        <path d="M9696,7527L9809,7527" style="fill:none;fill-rule:nonzero;stroke:black;stroke-width:12px;"/>
    </g>
    <g transform="matrix(0.06,0,0,0.06,-476.28,-312.84)">
        <path d="M9865,7527L9977,7527" style="fill:none;fill-rule:nonzero;stroke:black;stroke-width:12px;"/>
    </g>
    <g transform="matrix(0.06,0,0,0.06,-476.28,-312.84)">
        <path d="M10034,7527L10146,7527" style="fill:none;fill-rule:nonzero;stroke:black;stroke-width:12px;"/>
    </g>
    <g transform="matrix(0.06,0,0,0.06,-476.28,-312.84)">
        <path d="M10202,7527L10315,7527" style="fill:none;fill-rule:nonzero;stroke:black;stroke-width:12px;"/>
    </g>
    <g transform="matrix(0.06,0,0,0.06,-476.28,-312.84)">
        <path d="M10371,7527L10484,7527" style="fill:none;fill-rule:nonzero;stroke:black;stroke-width:12px;"/>
    </g>
    <g transform="matrix(0.06,0,0,0.06,-476.28,-312.84)">
        <path d="M10540,7527L10653,7527" style="fill:none;fill-rule:nonzero;stroke:black;stroke-width:12px;"/>
    </g>
    <g transform="matrix(0.06,0,0,0.06,-476.28,-312.84)">
        <path d="M10709,7527L10821,7527" style="fill:none;fill-rule:nonzero;stroke:black;stroke-width:12px;"/>
    </g>
    <g transform="matrix(0.06,0,0,0.06,-476.28,-312.84)">
        <path d="M10878,7527L10990,7527" style="fill:none;fill-rule:nonzero;stroke:black;stroke-width:12px;"/>
    </g>
    <g transform="matrix(0.06,0,0,0.06,-476.28,-312.84)">
        <path d="M11046,7527L11159,7527" style="fill:none;fill-rule:nonzero;stroke:black;stroke-width:12px;"/>
    </g>
    <g transform="matrix(0.06,0,0,0.06,-476.28,-312.84)">
        <path d="M11215,7527L11328,7527" style="fill:none;fill-rule:nonzero;stroke:black;stroke-width:12px;"/>
    </g>
    <g transform="matrix(0.06,0,0,0.06,-476.28,-312.84)">
        <path d="M11384,7527L11477,7527" style="fill:none;fill-rule:nonzero;stroke:black;stroke-width:12px;"/>
    </g>
    <g transform="matrix(0.06,0,0,0.06,-476.28,-305.34)">
        <path d="M9754,7427L9754,7502L9751,7502" style="fill:none;fill-rule:nonzero;stroke:black;stroke-width:24px;"/>
    </g>
    <g transform="matrix(0,-0.06,-0.06,0,660.21,831.15)">
        <path d="M11439.5,7464.5L11514.5,7464.5" style="fill:none;fill-rule:nonzero;stroke:black;stroke-width:24px;"/>
    </g>
    <g transform="matrix(0.06,0,0,0.06,-476.28,-309.84)">
        <path d="M11476,7502L11477,7502" style="fill:none;fill-rule:nonzero;stroke:black;stroke-width:12px;"/>
    </g>
    <g transform="matrix(0,-0.06,-0.06,0,556.65,727.59)">
        <path d="M9713.5,7464.5L9788.5,7464.5" style="fill:none;fill-rule:nonzero;stroke:black;stroke-width:24px;"/>
    </g>
    <g transform="matrix(0,0.06,0.06,0,-442.47,-339.15)">
        <path d="M7990.5,7464.5L8065.5,7464.5" style="fill:none;fill-rule:nonzero;stroke:black;stroke-width:24px;"/>
    </g>
    <g transform="matrix(0,0.06,0.06,0,-235.41,-546.21)">
        <path d="M11441.5,7464.5L11516.5,7464.5" style="fill:none;fill-rule:nonzero;stroke:black;stroke-width:24px;"/>
    </g>
    <g transform="matrix(0.06,0,0,0.06,-476.28,-309.84)">
        <path d="M8025,7502L8028,7502" style="fill:none;fill-rule:nonzero;stroke:black;stroke-width:24px;"/>
    </g>
    <g transform="matrix(0.06,0,0,0.06,-476.28,-309.84)">
        <path d="M11477,7502L11479,7502" style="fill:none;fill-rule:nonzero;stroke:black;stroke-width:24px;"/>
    </g>
    <g transform="matrix(0.06,0,0,0.06,-476.28,-309.84)">
        <path d="M8028,7502L11476,7502" style="fill:none;fill-rule:nonzero;stroke:black;stroke-width:24px;"/>
    </g>
    <g transform="matrix(0.06,0,0,0.06,-476.28,-300.84)">
        <path d="M9754,7427L11477,7427" style="fill:none;fill-rule:nonzero;stroke:black;stroke-width:24px;"/>
    </g>
    <g transform="matrix(0.06,0,0,0.06,-476.28,-300.84)">
        <path d="M11479,7427L11551,7427" style="fill:none;fill-rule:nonzero;stroke:black;stroke-width:24px;"/>
    </g>
    <g transform="matrix(0.06,0,0,0.06,-476.28,-300.84)">
        <path d="M7950,7427L8025,7427" style="fill:none;fill-rule:nonzero;stroke:black;stroke-width:24px;"/>
    </g>
    <g transform="matrix(0.06,0,0,0.06,-476.28,-300.84)">
        <path d="M8028,7427L9751,7427" style="fill:none;fill-rule:nonzero;stroke:black;stroke-width:24px;"/>
    </g>
    <g transform="matrix(0.06,0,0,0.06,-476.28,-440.4)">
        <path d="M8025,9753L8025,7427L11476,7427L11476,9678" style="fill:none;fill-rule:nonzero;stroke:black;stroke-width:24px;"/>
    </g>
    <g transform="matrix(0.06,0,0,0.06,-476.28,-444.9)">
        <path d="M11551,9828L11551,7427L7950,7427L7950,9828" style="fill:none;fill-rule:nonzero;stroke:black;stroke-width:24px;"/>
    </g>
</svg>
