<?xml version="1.0" encoding="UTF-8" standalone="no"?>
<!DOCTYPE svg PUBLIC "-//W3C//DTD SVG 1.1//EN" "http://www.w3.org/Graphics/SVG/1.1/DTD/svg11.dtd">
<svg width="100%" height="100%" viewBox="0 0 1224 792" version="1.1" xmlns="http://www.w3.org/2000/svg" xmlns:xlink="http://www.w3.org/1999/xlink" xml:space="preserve" xmlns:serif="http://www.serif.com/" style="fill-rule:evenodd;clip-rule:evenodd;stroke-linecap:round;stroke-linejoin:round;stroke-miterlimit:10;">
    <g id="Hidden">
        <g transform="matrix(0,-0.06,-0.06,0,932.55,822.81)">
            <path d="M8015.5,7514.5L8040.5,7514.5" style="fill:none;fill-rule:nonzero;stroke:black;stroke-width:12px;"/>
        </g>
        <g transform="matrix(0,-0.06,-0.06,0,1139.49,1029.75)">
            <path d="M11464.5,7514.5L11489.5,7514.5" style="fill:none;fill-rule:nonzero;stroke:black;stroke-width:12px;"/>
        </g>
        <g transform="matrix(0.06,0,0,0.06,0,-111.24)">
            <path d="M8028,7527L8121,7527" style="fill:none;fill-rule:nonzero;stroke:black;stroke-width:12px;"/>
        </g>
        <g transform="matrix(0.06,0,0,0.06,0,-111.24)">
            <path d="M8177,7527L8289,7527" style="fill:none;fill-rule:nonzero;stroke:black;stroke-width:12px;"/>
        </g>
        <g transform="matrix(0.06,0,0,0.06,0,-111.24)">
            <path d="M8346,7527L8458,7527" style="fill:none;fill-rule:nonzero;stroke:black;stroke-width:12px;"/>
        </g>
        <g transform="matrix(0.06,0,0,0.06,0,-111.24)">
            <path d="M8515,7527L8627,7527" style="fill:none;fill-rule:nonzero;stroke:black;stroke-width:12px;"/>
        </g>
        <g transform="matrix(0.06,0,0,0.06,0,-111.24)">
            <path d="M8683,7527L8796,7527" style="fill:none;fill-rule:nonzero;stroke:black;stroke-width:12px;"/>
        </g>
        <g transform="matrix(0.06,0,0,0.06,0,-111.24)">
            <path d="M8852,7527L8965,7527" style="fill:none;fill-rule:nonzero;stroke:black;stroke-width:12px;"/>
        </g>
        <g transform="matrix(0.06,0,0,0.06,0,-111.24)">
            <path d="M9021,7527L9133,7527" style="fill:none;fill-rule:nonzero;stroke:black;stroke-width:12px;"/>
        </g>
        <g transform="matrix(0.06,0,0,0.06,0,-111.24)">
            <path d="M9190,7527L9302,7527" style="fill:none;fill-rule:nonzero;stroke:black;stroke-width:12px;"/>
        </g>
        <g transform="matrix(0.06,0,0,0.06,0,-111.24)">
            <path d="M9358,7527L9471,7527" style="fill:none;fill-rule:nonzero;stroke:black;stroke-width:12px;"/>
        </g>
        <g transform="matrix(0.06,0,0,0.06,0,-111.24)">
            <path d="M9527,7527L9640,7527" style="fill:none;fill-rule:nonzero;stroke:black;stroke-width:12px;"/>
        </g>
        <g transform="matrix(0.06,0,0,0.06,0,-111.24)">
            <path d="M9696,7527L9809,7527" style="fill:none;fill-rule:nonzero;stroke:black;stroke-width:12px;"/>
        </g>
        <g transform="matrix(0.06,0,0,0.06,0,-111.24)">
            <path d="M9865,7527L9977,7527" style="fill:none;fill-rule:nonzero;stroke:black;stroke-width:12px;"/>
        </g>
        <g transform="matrix(0.06,0,0,0.06,0,-111.24)">
            <path d="M10034,7527L10146,7527" style="fill:none;fill-rule:nonzero;stroke:black;stroke-width:12px;"/>
        </g>
        <g transform="matrix(0.06,0,0,0.06,0,-111.24)">
            <path d="M10202,7527L10315,7527" style="fill:none;fill-rule:nonzero;stroke:black;stroke-width:12px;"/>
        </g>
        <g transform="matrix(0.06,0,0,0.06,0,-111.24)">
            <path d="M10371,7527L10484,7527" style="fill:none;fill-rule:nonzero;stroke:black;stroke-width:12px;"/>
        </g>
        <g transform="matrix(0.06,0,0,0.06,0,-111.24)">
            <path d="M10540,7527L10653,7527" style="fill:none;fill-rule:nonzero;stroke:black;stroke-width:12px;"/>
        </g>
        <g transform="matrix(0.06,0,0,0.06,0,-111.24)">
            <path d="M10709,7527L10821,7527" style="fill:none;fill-rule:nonzero;stroke:black;stroke-width:12px;"/>
        </g>
        <g transform="matrix(0.06,0,0,0.06,0,-111.24)">
            <path d="M10878,7527L10990,7527" style="fill:none;fill-rule:nonzero;stroke:black;stroke-width:12px;"/>
        </g>
        <g transform="matrix(0.06,0,0,0.06,0,-111.24)">
            <path d="M11046,7527L11159,7527" style="fill:none;fill-rule:nonzero;stroke:black;stroke-width:12px;"/>
        </g>
        <g transform="matrix(0.06,0,0,0.06,0,-111.24)">
            <path d="M11215,7527L11328,7527" style="fill:none;fill-rule:nonzero;stroke:black;stroke-width:12px;"/>
        </g>
        <g transform="matrix(0.06,0,0,0.06,0,-111.24)">
            <path d="M11384,7527L11477,7527" style="fill:none;fill-rule:nonzero;stroke:black;stroke-width:12px;"/>
        </g>
        <g id="Visible">
            <g transform="matrix(0.06,0,0,0.06,0,-103.74)">
                <path d="M9754,7427L9754,7502L9751,7502" style="fill:none;fill-rule:nonzero;stroke:black;stroke-width:24px;"/>
            </g>
            <g transform="matrix(0,-0.06,-0.06,0,1136.49,1032.75)">
                <path d="M11439.5,7464.5L11514.5,7464.5" style="fill:none;fill-rule:nonzero;stroke:black;stroke-width:24px;"/>
            </g>
        </g>
        <g transform="matrix(0.06,0,0,0.06,0,-108.24)">
            <g id="Hidden1" serif:id="Hidden">
                <path d="M11476,7502L11477,7502" style="fill:none;fill-rule:nonzero;stroke:black;stroke-width:12px;"/>
            </g>
        </g>
        <g transform="matrix(0,-0.06,-0.06,0,1032.93,929.19)">
            <path d="M9713.5,7464.5L9788.5,7464.5" style="fill:none;fill-rule:nonzero;stroke:black;stroke-width:24px;"/>
        </g>
        <g transform="matrix(0,0.06,0.06,0,33.81,-137.55)">
            <path d="M7990.5,7464.5L8065.5,7464.5" style="fill:none;fill-rule:nonzero;stroke:black;stroke-width:24px;"/>
        </g>
        <g transform="matrix(0,0.06,0.06,0,240.87,-344.61)">
            <path d="M11441.5,7464.5L11516.5,7464.5" style="fill:none;fill-rule:nonzero;stroke:black;stroke-width:24px;"/>
        </g>
        <g transform="matrix(0.06,0,0,0.06,0,-108.24)">
            <path d="M8025,7502L8028,7502" style="fill:none;fill-rule:nonzero;stroke:black;stroke-width:24px;"/>
        </g>
        <g transform="matrix(0.06,0,0,0.06,0,-108.24)">
            <path d="M11477,7502L11479,7502" style="fill:none;fill-rule:nonzero;stroke:black;stroke-width:24px;"/>
        </g>
        <g transform="matrix(0.06,0,0,0.06,0,-108.24)">
            <path d="M8028,7502L11476,7502" style="fill:none;fill-rule:nonzero;stroke:black;stroke-width:24px;"/>
        </g>
        <g transform="matrix(0.06,0,0,0.06,0,-99.24)">
            <path d="M9754,7427L11477,7427" style="fill:none;fill-rule:nonzero;stroke:black;stroke-width:24px;"/>
        </g>
        <g transform="matrix(0.06,0,0,0.06,0,-99.24)">
            <path d="M11479,7427L11551,7427" style="fill:none;fill-rule:nonzero;stroke:black;stroke-width:24px;"/>
        </g>
        <g transform="matrix(0.06,0,0,0.06,0,-99.24)">
            <path d="M7950,7427L8025,7427" style="fill:none;fill-rule:nonzero;stroke:black;stroke-width:24px;"/>
        </g>
        <g transform="matrix(0.06,0,0,0.06,0,-99.24)">
            <path d="M8028,7427L9751,7427" style="fill:none;fill-rule:nonzero;stroke:black;stroke-width:24px;"/>
        </g>
        <g transform="matrix(0.06,0,0,0.06,0,-238.8)">
            <path d="M8025,9753L8025,7427L11476,7427L11476,9678" style="fill:none;fill-rule:nonzero;stroke:black;stroke-width:24px;"/>
        </g>
        <g transform="matrix(0.06,0,0,0.06,0,-243.3)">
            <path d="M11551,9828L11551,7427L7950,7427L7950,9828" style="fill:none;fill-rule:nonzero;stroke:black;stroke-width:24px;"/>
        </g>
    </g>
    <g id="Border">
        <g transform="matrix(0.06,0,0,0.06,0,0.12)">
            <path d="M743,12743L19655,12743L19655,455L743,455L743,12743" style="fill:none;fill-rule:nonzero;stroke:black;stroke-width:12px;"/>
        </g>
        <g transform="matrix(0.06,0,0,0.06,0,759)">
            <path d="M10095,275L10303,275" style="fill:none;fill-rule:nonzero;stroke:black;stroke-width:12px;"/>
        </g>
        <g transform="matrix(0.06,0,0,0.06,0,755.4)">
            <path d="M10095,335L10199,155L10199,455" style="fill:none;fill-rule:nonzero;stroke:black;stroke-width:12px;"/>
        </g>
        <g transform="matrix(0.0300167,0.0519519,0.0519519,-0.0300167,288.397,248.497)">
            <path d="M10147.1,365L10354.9,365" style="fill:none;fill-rule:nonzero;stroke:black;stroke-width:12px;"/>
        </g>
        <g transform="matrix(0,0.06,0.06,0,-362.16,362.28)">
            <path d="M459,6599L667,6599" style="fill:none;fill-rule:nonzero;stroke:black;stroke-width:12px;"/>
        </g>
        <g transform="matrix(0.06,0,0,0.06,0,-6.12)">
            <path d="M563,6599L743,6703L443,6703" style="fill:none;fill-rule:nonzero;stroke:black;stroke-width:12px;"/>
        </g>
        <g transform="matrix(-0.0519519,0.0300167,0.0300167,0.0519519,-123.414,39.45)">
            <path d="M549.058,6547L756.942,6547" style="fill:none;fill-rule:nonzero;stroke:black;stroke-width:12px;"/>
        </g>
        <g transform="matrix(0,0.06,0.06,0,794.16,-794.04)">
            <path d="M19731,6599L19939,6599" style="fill:none;fill-rule:nonzero;stroke:black;stroke-width:12px;"/>
        </g>
        <g transform="matrix(0.06,0,0,0.06,0,-6.12)">
            <path d="M19835,6599L19655,6703L19955,6703" style="fill:none;fill-rule:nonzero;stroke:black;stroke-width:12px;"/>
        </g>
        <g transform="matrix(0.0519519,0.0300167,0.0300167,-0.0519519,-37.6094,146.63)">
            <path d="M19641.1,6547L19848.9,6547" style="fill:none;fill-rule:nonzero;stroke:black;stroke-width:12px;"/>
        </g>
        <g transform="matrix(0.06,0,0,0.06,0,-758.76)">
            <path d="M10095,12923L10303,12923" style="fill:none;fill-rule:nonzero;stroke:black;stroke-width:12px;"/>
        </g>
        <g transform="matrix(0.06,0,0,0.06,0,-755.16)">
            <path d="M10095,12863L10199,13043L10199,12743" style="fill:none;fill-rule:nonzero;stroke:black;stroke-width:12px;"/>
        </g>
        <g transform="matrix(0.0300167,-0.0519519,-0.0519519,-0.0300167,974.058,939.783)">
            <path d="M10147.1,12833L10354.9,12833" style="fill:none;fill-rule:nonzero;stroke:black;stroke-width:12px;"/>
        </g>
        <g id="Titleblock">
            <g transform="matrix(0.06,0,0,0.06,0,737.4)">
                <path d="M10367,455L19655,455" style="fill:none;fill-rule:nonzero;stroke:black;stroke-width:12px;"/>
            </g>
            <g transform="matrix(0.06,0,0,0.06,0,466.68)">
                <path d="M13511,2711L19655,2711" style="fill:none;fill-rule:nonzero;stroke:black;stroke-width:12px;"/>
            </g>
            <g transform="matrix(0.06,0,0,0.06,0,701.4)">
                <path d="M10367,755L19655,755" style="fill:none;fill-rule:nonzero;stroke:black;stroke-width:12px;"/>
            </g>
            <g transform="matrix(0.06,0,0,0.06,0,665.4)">
                <path d="M10367,1055L13511,1055" style="fill:none;fill-rule:nonzero;stroke:black;stroke-width:12px;"/>
            </g>
            <g transform="matrix(0.06,0,0,0.06,0,629.4)">
                <path d="M10367,1355L19655,1355" style="fill:none;fill-rule:nonzero;stroke:black;stroke-width:12px;"/>
            </g>
            <g transform="matrix(0,-0.06,-0.06,0,1296.6,1854)">
                <path d="M18155,1955L21155,1955" style="fill:none;fill-rule:nonzero;stroke:black;stroke-width:12px;"/>
            </g>
            <g transform="matrix(0,-0.06,-0.06,0,900.6,1566)">
                <path d="M13655,1055L14255,1055" style="fill:none;fill-rule:nonzero;stroke:black;stroke-width:12px;"/>
            </g>
            <g transform="matrix(0,-0.06,-0.06,0,990.6,1656)">
                <path d="M15155,1055L15755,1055" style="fill:none;fill-rule:nonzero;stroke:black;stroke-width:12px;"/>
            </g>
            <g transform="matrix(0,-0.06,-0.06,0,927.96,1485.36)">
                <path d="M12011,1955L15011,1955" style="fill:none;fill-rule:nonzero;stroke:black;stroke-width:12px;"/>
            </g>
            <g transform="matrix(0,-0.06,-0.06,0,945.6,1665)">
                <path d="M15005,605L15305,605" style="fill:none;fill-rule:nonzero;stroke:black;stroke-width:12px;"/>
            </g>
            <g transform="matrix(0,-0.06,-0.06,0,1089.6,1809)">
                <path d="M17405,605L17705,605" style="fill:none;fill-rule:nonzero;stroke:black;stroke-width:12px;"/>
            </g>
            <g transform="matrix(0,-0.06,-0.06,0,1206.6,1872)">
                <path d="M18755,1055L19355,1055" style="fill:none;fill-rule:nonzero;stroke:black;stroke-width:12px;"/>
            </g>
            <g transform="matrix(0.06,0,0,0.06,0,557.4)">
                <path d="M19655,455L10367,455L10367,3455" style="fill:none;fill-rule:nonzero;stroke:black;stroke-width:12px;"/>
            </g>
        </g>
    </g>
    <g id="Titleblock1" serif:id="Titleblock">
        <text x="814.26px" y="595.5px" style="font-family:'ArialMT', 'Arial', sans-serif;font-size:10.058px;">PROJECT</text>
        <text x="814.26px" y="640.14px" style="font-family:'ArialMT', 'Arial', sans-serif;font-size:10.058px;">TITLE</text>
        <g>
            <text x="625.62px" y="759.3px" style="font-family:'ArialMT', 'Arial', sans-serif;font-size:10.058px;">DR</text>
            <text x="640.143px" y="759.3px" style="font-family:'ArialMT', 'Arial', sans-serif;font-size:10.058px;">A</text>
            <text x="646.852px" y="759.3px" style="font-family:'ArialMT', 'Arial', sans-serif;font-size:10.058px;">WN</text>
        </g>
        <text x="625.62px" y="741.3px" style="font-family:'ArialMT', 'Arial', sans-serif;font-size:10.058px;">CHECKED</text>
        <text x="625.62px" y="723.3px" style="font-family:'ArialMT', 'Arial', sans-serif;font-size:10.058px;">APPROVED</text>
        <text x="814.92px" y="759.3px" style="font-family:'ArialMT', 'Arial', sans-serif;font-size:10.058px;">SCALE</text>
        <text x="912.9px" y="759.3px" style="font-family:'ArialMT', 'Arial', sans-serif;font-size:10.058px;">WEIGHT</text>
        <text x="1056.9px" y="759.3px" style="font-family:'ArialMT', 'Arial', sans-serif;font-size:10.058px;">SHEET</text>
        <text x="930.9px" y="721.5px" style="font-family:'ArialMT', 'Arial', sans-serif;font-size:10.058px;">DWG NO</text>
        <text x="1150.92px" y="721.5px" style="font-family:'ArialMT', 'Arial', sans-serif;font-size:10.058px;">REV</text>
        <text x="867.78px" y="721.5px" style="font-family:'ArialMT', 'Arial', sans-serif;font-size:10.058px;">CODE</text>
        <text x="812.82px" y="721.5px" style="font-family:'ArialMT', 'Arial', sans-serif;font-size:10.058px;">SIZE</text>
        <text x="1095.18px" y="760.02px" style="font-family:'ArialMT', 'Arial', sans-serif;font-size:12.069px;">1/1</text>
        <text x="852.54px" y="760.02px" style="font-family:'ArialMT', 'Arial', sans-serif;font-size:12.069px;">1&quot; = 1&apos;</text>
        <text x="758.58px" y="759.3px" style="font-family:'ArialMT', 'Arial', sans-serif;font-size:10.058px;">30/01/2021</text>
        <g transform="matrix(0.574219,0,0,1,292.026,0)">
            <text x="685.86px" y="759.3px" style="font-family:'ArialMT', 'Arial', sans-serif;font-size:10.058px;">Thomas Dhome-Casanova</text>
        </g>
        <text x="819.84px" y="743.1px" style="font-family:'ArialMT', 'Arial', sans-serif;font-size:12.069px;">B</text>
        <text x="812.4px" y="622.44px" style="font-family:'ArialMT', 'Arial', sans-serif;font-size:24.138px;">DC</text>
        <text x="812.4px" y="664.62px" style="font-family:'ArialMT', 'Arial', sans-serif;font-size:24.138px;">Princeton_Dorm_Wa<tspan x="1036.4px " y="664.62px ">r</tspan>drobe</text>
    </g>
</svg>
